<?xml version="1.0" standalone="no"?>
<!DOCTYPE svg PUBLIC "-//W3C//DTD SVG 20010904//EN"
 "http://www.w3.org/TR/2001/REC-SVG-20010904/DTD/svg10.dtd">
<svg version="1.0" xmlns="http://www.w3.org/2000/svg"
 width="700.000000pt" height="700.000000pt" viewBox="0 0 700.000000 700.000000"
 preserveAspectRatio="xMidYMid meet">
<metadata>
Created by potrace 1.14, written by Peter Selinger 2001-2017
</metadata>
<g transform="translate(0.000000,700.000000) scale(0.100000,-0.100000)"
fill="#000000" stroke="none">
<path d="M1355 5218 c-27 -4 -69 -10 -93 -14 -176 -25 -460 -166 -652 -324
-77 -64 -219 -206 -275 -275 -21 -28 -42 -52 -46 -55 -19 -15 -153 -228 -192
-305 -82 -165 -96 -203 -93 -268 2 -58 24 -82 84 -93 26 -5 575 -9 1220 -9
l1172 1 -6 -36 c-3 -19 -7 -46 -10 -60 -2 -14 -7 -43 -9 -65 -3 -22 -7 -47
-10 -55 -2 -8 -7 -40 -10 -70 -4 -30 -8 -57 -10 -60 -2 -3 -7 -33 -10 -65 -4
-33 -9 -62 -10 -65 -2 -3 -6 -29 -10 -59 -4 -30 -8 -61 -10 -70 -1 -9 -8 -52
-14 -96 -7 -44 -16 -102 -21 -130 -5 -27 -12 -68 -15 -90 -3 -23 -7 -50 -9
-60 -2 -11 -7 -42 -11 -70 -4 -27 -9 -59 -10 -70 -12 -76 -17 -102 -20 -115
-2 -8 -7 -42 -11 -75 -3 -33 -8 -63 -10 -66 -1 -3 -6 -28 -9 -55 -4 -27 -8
-56 -10 -64 -3 -8 -7 -35 -10 -60 -3 -25 -8 -58 -11 -75 -2 -16 -9 -55 -14
-85 -5 -30 -11 -73 -14 -95 -3 -22 -7 -49 -10 -60 -6 -32 -20 -139 -19 -152 0
-7 1 -19 2 -27 0 -8 12 -28 26 -45 35 -41 89 -51 185 -33 258 47 621 219 899
427 143 107 281 235 361 335 19 24 43 51 52 61 31 32 141 213 174 285 56 121
86 218 108 359 37 229 67 414 71 435 2 14 20 129 40 255 19 127 40 253 45 280
5 28 16 97 25 155 20 132 30 191 59 370 6 38 20 123 22 140 1 8 4 29 8 45 22
116 22 214 2 253 -19 36 -36 50 -78 64 -39 13 -2730 19 -2813 6z"/>
<path d="M4653 5218 c-52 -11 -95 -52 -111 -104 -6 -22 -27 -140 -47 -264 -20
-124 -45 -282 -56 -352 -22 -137 -24 -146 -33 -223 -4 -27 -9 -57 -11 -65 -3
-8 -7 -37 -10 -64 -4 -28 -8 -52 -10 -55 -1 -3 -6 -34 -10 -68 -10 -90 13
-125 90 -139 22 -4 285 -7 585 -6 634 0 676 4 890 84 318 119 620 368 834 688
75 112 158 278 190 378 38 121 35 151 -18 180 -29 15 -118 17 -1136 17 -608 1
-1124 -3 -1147 -7z"/>
</g>
</svg>
