<svg width="88" height="88" viewBox="0 0 88 88" fill="none" xmlns="http://www.w3.org/2000/svg">
<circle cx="44" cy="44" r="43.5" stroke="#E1E1E1"/>
<path d="M36.7118 38.1335L36.2618 37.5335L36.2618 37.5335L36.7118 38.1335ZM42.4007 33.8668L41.9507 33.2668V33.2668L42.4007 33.8668ZM42.4007 54.1335L41.9507 54.7335V54.7335L42.4007 54.1335ZM36.7118 49.8668L36.2618 50.4668L36.7118 49.8668ZM51.9117 38.7557C51.6188 38.4629 51.1439 38.4629 50.851 38.7557C50.5581 39.0486 50.5581 39.5235 50.851 39.8164L51.9117 38.7557ZM55.6829 34.9845C55.39 34.6916 54.9152 34.6916 54.6223 34.9845C54.3294 35.2774 54.3294 35.7523 54.6223 36.0452L55.6829 34.9845ZM50.851 48.1838C50.5581 48.4767 50.5581 48.9516 50.851 49.2445C51.1439 49.5374 51.6188 49.5374 51.9117 49.2445L50.851 48.1838ZM54.6223 51.9551C54.3294 52.248 54.3294 52.7228 54.6223 53.0157C54.9152 53.3086 55.39 53.3086 55.6829 53.0157L54.6223 51.9551ZM32.0007 39.4168H35.1118V37.9168H32.0007V39.4168ZM37.1618 38.7335L42.8507 34.4668L41.9507 33.2668L36.2618 37.5335L37.1618 38.7335ZM45.9173 36.0001V52.0001H47.4173V36.0001H45.9173ZM42.8507 53.5335L37.1618 49.2668L36.2618 50.4668L41.9507 54.7335L42.8507 53.5335ZM35.1118 48.5835H32.0007V50.0835H35.1118V48.5835ZM30.084 46.6668V41.3335H28.584V46.6668H30.084ZM32.0007 48.5835C30.9421 48.5835 30.084 47.7253 30.084 46.6668H28.584C28.584 48.5538 30.1137 50.0835 32.0007 50.0835V48.5835ZM37.1618 49.2668C36.5704 48.8232 35.851 48.5835 35.1118 48.5835V50.0835C35.5265 50.0835 35.93 50.218 36.2618 50.4668L37.1618 49.2668ZM45.9173 52.0001C45.9173 53.5795 44.1142 54.4811 42.8507 53.5335L41.9507 54.7335C44.203 56.4227 47.4173 54.8156 47.4173 52.0001H45.9173ZM42.8507 34.4668C44.1142 33.5191 45.9173 34.4207 45.9173 36.0001H47.4173C47.4173 33.1846 44.203 31.5775 41.9507 33.2668L42.8507 34.4668ZM35.1118 39.4168C35.851 39.4168 36.5703 39.177 37.1618 38.7335L36.2618 37.5335C35.93 37.7823 35.5265 37.9168 35.1118 37.9168V39.4168ZM32.0007 37.9168C30.1137 37.9168 28.584 39.4465 28.584 41.3335H30.084C30.084 40.2749 30.9421 39.4168 32.0007 39.4168V37.9168ZM50.851 39.8164C51.9226 40.8879 52.584 42.3661 52.584 44.0001H54.084C54.084 41.9523 53.253 40.0971 51.9117 38.7557L50.851 39.8164ZM54.6223 36.0452C56.6589 38.0818 57.9173 40.8933 57.9173 44.0001H59.4173C59.4173 40.4795 57.9894 37.291 55.6829 34.9845L54.6223 36.0452ZM52.584 44.0001C52.584 45.6342 51.9226 47.1123 50.851 48.1838L51.9117 49.2445C53.253 47.9032 54.084 46.048 54.084 44.0001H52.584ZM57.9173 44.0001C57.9173 47.1069 56.6589 49.9184 54.6223 51.9551L55.6829 53.0157C57.9894 50.7093 59.4173 47.5207 59.4173 44.0001H57.9173Z" fill="#1333BB"/>
</svg>
