<svg width="96" height="96" viewBox="0 0 96 96" fill="none" xmlns="http://www.w3.org/2000/svg">
<circle cx="48" cy="48" r="47.5" stroke="#E1E1E1"/>
<path fill-rule="evenodd" clip-rule="evenodd" d="M43.4187 32.75C42.9433 32.75 42.5512 33.33 42.8534 33.853L45.5995 38.6063H50.4003L53.1464 33.853C53.4486 33.33 53.0564 32.75 52.5811 32.75H43.4187ZM50.1793 40.1063H45.8205L43.1949 59.1938C43.1572 59.4683 43.2685 59.7318 43.4652 59.885L47.6108 63.1141L47.1499 63.7057L47.6108 63.1141C47.8435 63.2953 48.1563 63.2953 48.389 63.1141L48.8499 63.7057L48.389 63.1141L52.5346 59.885C52.7313 59.7318 52.8426 59.4683 52.8048 59.1938L50.1793 40.1063ZM44.3886 39.5089L41.5545 34.6034C40.7237 33.1652 41.6918 31.25 43.4187 31.25H52.5811C54.308 31.25 55.2761 33.1652 54.4452 34.6034L51.6112 39.5089L54.2909 58.9894C54.3994 59.7786 54.0872 60.577 53.4563 61.0684L49.3108 64.2974C48.5361 64.9009 47.4637 64.9009 46.689 64.2974L42.5435 61.0684L42.9987 60.484L42.5435 61.0684C41.9125 60.577 41.6004 59.7786 41.7089 58.9894L44.3886 39.5089Z" fill="#1333BB"/>
</svg>
