<svg width="88" height="88" viewBox="0 0 88 88" fill="none" xmlns="http://www.w3.org/2000/svg">
<path d="M44.75 28C44.75 27.5858 44.4142 27.25 44 27.25C43.5858 27.25 43.25 27.5858 43.25 28H44.75ZM51.15 28C51.15 27.5858 50.8142 27.25 50.4 27.25C49.9858 27.25 49.65 27.5858 49.65 28H51.15ZM38.35 28C38.35 27.5858 38.0142 27.25 37.6 27.25C37.1858 27.25 36.85 27.5858 36.85 28H38.35ZM43.25 60C43.25 60.4142 43.5858 60.75 44 60.75C44.4142 60.75 44.75 60.4142 44.75 60H43.25ZM49.65 60C49.65 60.4142 49.9858 60.75 50.4 60.75C50.8142 60.75 51.15 60.4142 51.15 60H49.65ZM36.85 60C36.85 60.4142 37.1858 60.75 37.6 60.75C38.0142 60.75 38.35 60.4142 38.35 60H36.85ZM28 43.25C27.5858 43.25 27.25 43.5858 27.25 44C27.25 44.4142 27.5858 44.75 28 44.75V43.25ZM28 36.85C27.5858 36.85 27.25 37.1858 27.25 37.6C27.25 38.0142 27.5858 38.35 28 38.35V36.85ZM28 49.65C27.5858 49.65 27.25 49.9858 27.25 50.4C27.25 50.8142 27.5858 51.15 28 51.15V49.65ZM60 44.75C60.4142 44.75 60.75 44.4142 60.75 44C60.75 43.5858 60.4142 43.25 60 43.25V44.75ZM60 38.35C60.4142 38.35 60.75 38.0142 60.75 37.6C60.75 37.1858 60.4142 36.85 60 36.85V38.35ZM60 51.15C60.4142 51.15 60.75 50.8142 60.75 50.4C60.75 49.9858 60.4142 49.65 60 49.65V51.15ZM37.6 37.6V36.85C37.1858 36.85 36.85 37.1858 36.85 37.6H37.6ZM50.4 37.6H51.15C51.15 37.1858 50.8142 36.85 50.4 36.85V37.6ZM50.4 50.4V51.15C50.8142 51.15 51.15 50.8142 51.15 50.4H50.4ZM37.6 50.4H36.85C36.85 50.8142 37.1858 51.15 37.6 51.15V50.4ZM43.25 28V31.2H44.75V28H43.25ZM44 31.95H50.4V30.45H44V31.95ZM49.65 28V31.2H51.15V28H49.65ZM37.6 31.95H44V30.45H37.6V31.95ZM36.85 28V31.2H38.35V28H36.85ZM43.25 56.8V60H44.75V56.8H43.25ZM50.4 56.05H44V57.55H50.4V56.05ZM49.65 56.8V60H51.15V56.8H49.65ZM44 56.05H37.6V57.55H44V56.05ZM36.85 56.8V60H38.35V56.8H36.85ZM34.4 31.95H37.6V30.45H34.4V31.95ZM37.6 56.05H34.4V57.55H37.6V56.05ZM53.6 56.05H50.4V57.55H53.6V56.05ZM50.4 31.95H53.6V30.45H50.4V31.95ZM31.2 43.25H28V44.75H31.2V43.25ZM31.95 44V37.6H30.45V44H31.95ZM31.95 37.6V34.4H30.45V37.6H31.95ZM31.2 36.85H28V38.35H31.2V36.85ZM31.95 53.6V50.4H30.45V53.6H31.95ZM31.95 50.4V44H30.45V50.4H31.95ZM31.2 49.65H28V51.15H31.2V49.65ZM56.8 44.75H60V43.25H56.8V44.75ZM56.05 34.4V37.6H57.55V34.4H56.05ZM56.05 37.6V44H57.55V37.6H56.05ZM56.8 38.35H60V36.85H56.8V38.35ZM56.05 44V50.4H57.55V44H56.05ZM56.05 50.4V53.6H57.55V50.4H56.05ZM56.8 51.15H60V49.65H56.8V51.15ZM34.4 56.05C33.0469 56.05 31.95 54.9531 31.95 53.6H30.45C30.45 55.7815 32.2185 57.55 34.4 57.55V56.05ZM53.6 57.55C55.7815 57.55 57.55 55.7815 57.55 53.6H56.05C56.05 54.9531 54.9531 56.05 53.6 56.05V57.55ZM53.6 31.95C54.9531 31.95 56.05 33.0469 56.05 34.4H57.55C57.55 32.2185 55.7815 30.45 53.6 30.45V31.95ZM34.4 30.45C32.2185 30.45 30.45 32.2185 30.45 34.4H31.95C31.95 33.0469 33.0469 31.95 34.4 31.95V30.45ZM37.6 38.35H50.4V36.85H37.6V38.35ZM49.65 37.6V50.4H51.15V37.6H49.65ZM50.4 49.65H37.6V51.15H50.4V49.65ZM38.35 50.4V37.6H36.85V50.4H38.35Z" fill="#1333BB"/>
<circle cx="44" cy="44" r="43.5" stroke="#E1E1E1"/>
</svg>
