<svg width="88" height="88" viewBox="0 0 88 88" fill="none" xmlns="http://www.w3.org/2000/svg">
<path d="M25.4516 55.2C21.8885 55.2 19 52.3346 19 48.8V34.4C19 30.8654 21.8885 28 25.4516 28H62.5484C66.1115 28 69 30.8654 69 34.4V48.8C69 52.3346 66.1115 55.2 62.5484 55.2M25.4516 55.2H30.0887M25.4516 55.2V60M62.5484 55.2H57.9113M62.5484 55.2V60M44 55.2H39.3629M44 55.2H48.6371M44 55.2V60M53.2742 55.2H48.6371M53.2742 55.2H57.9113M53.2742 55.2V60M34.7258 55.2H30.0887M34.7258 55.2H39.3629M34.7258 55.2V60M30.0887 55.2V60M39.3629 55.2V60M48.6371 55.2V60M57.9113 55.2V60" stroke="#1333BB" stroke-width="1.5" stroke-linecap="round"/>
<circle cx="44" cy="44" r="43.5" stroke="#E1E1E1"/>
</svg>
