<svg width="96" height="96" viewBox="0 0 96 96" fill="none" xmlns="http://www.w3.org/2000/svg">
<circle cx="48" cy="48" r="47.5" stroke="#E1E1E1"/>
<path fill-rule="evenodd" clip-rule="evenodd" d="M35.706 37.7221C36.6442 36.1858 38.3207 35.25 40.1258 35.25C42.7411 35.25 44.91 37.1822 45.2493 39.6968C45.9874 39.062 46.9496 38.6786 48 38.6786C49.0504 38.6786 50.0126 39.062 50.7507 39.6968C51.09 37.1822 53.2589 35.25 55.8742 35.25C57.6793 35.25 59.3558 36.1858 60.294 37.7221L66.3226 47.595C67.2242 48.9377 67.75 50.5517 67.75 52.2857C67.75 56.9657 63.9289 60.75 59.2273 60.75C54.5256 60.75 50.7045 56.9657 50.7045 52.2857C50.7045 50.8117 49.499 49.6071 48 49.6071C46.501 49.6071 45.2955 50.8117 45.2955 52.2857C45.2955 56.9657 41.4744 60.75 36.7727 60.75C32.0711 60.75 28.25 56.9657 28.25 52.2857C28.25 50.5517 28.7758 48.9377 29.6774 47.595L35.706 37.7221ZM33.289 44.5587C34.3527 44.085 35.5319 43.8214 36.7727 43.8214C39.6839 43.8214 42.2575 45.2723 43.7955 47.4883V40.3864C43.7955 38.3834 42.1579 36.75 40.1258 36.75C38.8399 36.75 37.6501 37.4167 36.9862 38.5039L33.289 44.5587ZM45.2955 42.8571V49.0863C46.0273 48.4749 46.9714 48.1071 48 48.1071C49.0286 48.1071 49.9727 48.4749 50.7045 49.0863V42.8571C50.7045 41.3831 49.499 40.1786 48 40.1786C46.501 40.1786 45.2955 41.3831 45.2955 42.8571ZM52.2045 47.4883C53.7425 45.2723 56.3161 43.8214 59.2273 43.8214C60.4681 43.8214 61.6473 44.085 62.711 44.5587L59.0138 38.5039C58.3499 37.4167 57.1601 36.75 55.8742 36.75C53.8421 36.75 52.2045 38.3834 52.2045 40.3864V47.4883ZM52.2045 52.2857C52.2045 56.1267 55.3434 59.25 59.2273 59.25C63.1112 59.25 66.25 56.1267 66.25 52.2857C66.25 50.8543 65.8153 49.5255 65.0693 48.4194C63.8093 46.5512 61.6639 45.3214 59.2273 45.3214C55.3434 45.3214 52.2045 48.4448 52.2045 52.2857ZM43.7955 52.2857C43.7955 48.4448 40.6566 45.3214 36.7727 45.3214C34.3361 45.3214 32.1907 46.5512 30.9307 48.4194C30.1847 49.5255 29.75 50.8543 29.75 52.2857C29.75 56.1267 32.8888 59.25 36.7727 59.25C40.6566 59.25 43.7955 56.1267 43.7955 52.2857Z" fill="#1333BB"/>
</svg>
