<svg width="72" height="72" viewBox="0 0 72 72" fill="none" xmlns="http://www.w3.org/2000/svg">
<rect width="72" height="72" rx="36" fill="white"/>
<path d="M33.8135 43L37.6735 30.8V43H39.9135V28.5H36.2535L32.6335 40.34L29.0135 28.5H25.3535V43H27.5935V30.8L31.4535 43H33.8135ZM44.6623 33.2C43.7223 33.2 43.1623 32.54 43.0223 31.66H41.4823C41.6223 33.28 42.8023 34.38 44.6223 34.38C46.3023 34.38 47.7823 33.58 47.7823 31.9C47.7823 31.08 47.3223 30.3 46.4623 29.92C47.0823 29.58 47.6023 28.92 47.6023 28.12C47.6023 26.58 46.1423 25.94 44.7823 25.94C42.9623 25.94 41.7223 26.84 41.5823 28.52H43.1223C43.2623 27.58 43.8023 27.12 44.6823 27.12C45.3423 27.12 45.9823 27.48 45.9823 28.2C45.9823 28.98 45.3823 29.38 44.1823 29.38H43.7823V30.66H44.2623C45.4023 30.66 46.1623 31.02 46.1623 31.92C46.1623 32.72 45.5223 33.2 44.6623 33.2Z" fill="#183FE7"/>
</svg>
