<svg width="72" height="72" viewBox="0 0 72 72" fill="none" xmlns="http://www.w3.org/2000/svg">
<rect width="72" height="72" rx="36" fill="white"/>
<path d="M26.035 31.26C26.035 32.92 27.395 34.28 29.035 34.28C30.715 34.28 32.075 32.92 32.075 31.26C32.075 29.58 30.715 28.24 29.035 28.24C27.395 28.24 26.035 29.58 26.035 31.26ZM27.575 31.26C27.575 30.38 28.175 29.68 29.035 29.68C29.915 29.68 30.555 30.38 30.555 31.26C30.555 32.12 29.915 32.84 29.035 32.84C28.175 32.84 27.575 32.12 27.575 31.26ZM43.4733 38.28C43.0133 40.2 41.6333 41.36 39.4733 41.36C36.9733 41.36 35.1133 39.3 35.1133 35.72C35.1133 32.1 36.9933 30.14 39.4533 30.14C41.5933 30.14 42.9533 31.32 43.4133 33.22H45.6133C45.0333 30.04 42.6533 28.24 39.5533 28.24C35.3933 28.24 32.7733 31.18 32.7733 35.72C32.7733 40.18 35.2133 43.26 39.4133 43.26C42.6533 43.26 45.0333 41.48 45.6733 38.28H43.4733Z" fill="#183FE7"/>
</svg>
