<svg width="80" height="80" viewBox="0 0 80 80" fill="none" xmlns="http://www.w3.org/2000/svg">
<rect x="0.5" y="0.5" width="79" height="79" rx="39.5" fill="white"/>
<path d="M49.8182 40C49.8182 45.4224 45.4224 49.8182 40 49.8182M49.8182 40C49.8182 34.5776 45.4224 30.1818 40 30.1818M49.8182 40H52M40 49.8182C34.5776 49.8182 30.1818 45.4224 30.1818 40M40 49.8182V52M30.1818 40C30.1818 34.5776 34.5776 30.1818 40 30.1818M30.1818 40H28M40 30.1818V28M44.3636 40C44.3636 42.41 42.41 44.3636 40 44.3636C37.59 44.3636 35.6364 42.41 35.6364 40C35.6364 37.59 37.59 35.6364 40 35.6364C42.41 35.6364 44.3636 37.59 44.3636 40Z" stroke="#183FE7" stroke-width="1.5" stroke-linecap="round"/>
<rect x="0.5" y="0.5" width="79" height="79" rx="39.5" stroke="#F2F2F2"/>
</svg>
