<svg width="80" height="80" viewBox="0 0 80 80" fill="none" xmlns="http://www.w3.org/2000/svg">
<rect x="0.5" y="0.5" width="79" height="79" rx="39.5" fill="white"/>
<path d="M32.6701 31.1686L28.226 35.5625C27.258 36.5196 27.258 38.0713 28.226 39.0284L35.8749 46.5909C36.8429 47.548 38.4123 47.548 39.3803 46.5909L47.5425 38.5208M32.6701 31.1686L35.5119 28.3589C35.9959 27.8804 36.7806 27.8804 37.2646 28.3589L47.5425 38.5208M32.6701 31.1686L37.6276 36.0701M32.6701 31.1686L30.1914 28.7178M47.5425 38.5208L48.7819 39.7462M52.5 48.9366C52.5 50.6284 51.1128 52 49.4016 52C47.6904 52 46.3032 50.6284 46.3032 48.9366C46.3032 46.4858 49.4016 44.6477 49.4016 44.6477C49.4016 44.6477 52.5 46.4858 52.5 48.9366Z" stroke="#183FE7" stroke-width="1.5" stroke-linecap="round"/>
<rect x="0.5" y="0.5" width="79" height="79" rx="39.5" stroke="#F2F2F2"/>
</svg>
