<svg width="88" height="88" viewBox="0 0 88 88" fill="none" xmlns="http://www.w3.org/2000/svg">
<circle cx="44" cy="44" r="44" fill="white"/>
<path d="M33.8182 50.4722C33.404 50.4722 33.0682 50.808 33.0682 51.2222C33.0682 51.6364 33.404 51.9722 33.8182 51.9722V50.4722ZM35.2727 51.9722C35.6869 51.9722 36.0227 51.6364 36.0227 51.2222C36.0227 50.808 35.6869 50.4722 35.2727 50.4722V51.9722ZM41.0909 50.4722C40.6767 50.4722 40.3409 50.808 40.3409 51.2222C40.3409 51.6364 40.6767 51.9722 41.0909 51.9722V50.4722ZM42.5455 51.9722C42.9597 51.9722 43.2955 51.6364 43.2955 51.2222C43.2955 50.808 42.9597 50.4722 42.5455 50.4722V51.9722ZM34.5292 30.7613C34.3974 30.3687 33.9722 30.1572 33.5795 30.289C33.1868 30.4208 32.9754 30.846 33.1072 31.2387L34.5292 30.7613ZM54.8928 31.2387C55.0246 30.846 54.8132 30.4208 54.4205 30.289C54.0278 30.1572 53.6026 30.3687 53.4708 30.7613L54.8928 31.2387ZM54.7819 40.463L55.3809 40.0117L54.7819 40.463ZM33.2181 40.463L32.6191 40.0117L33.2181 40.463ZM30.9091 46.1944H57.0909V44.6944H30.9091V46.1944ZM59.25 48.3333V54.1111H60.75V48.3333H59.25ZM57.0909 56.25H30.9091V57.75H57.0909V56.25ZM28.75 54.1111V48.3333H27.25V54.1111H28.75ZM30.9091 56.25C29.7117 56.25 28.75 55.2875 28.75 54.1111H27.25C27.25 56.1257 28.8932 57.75 30.9091 57.75V56.25ZM59.25 54.1111C59.25 55.2875 58.2883 56.25 57.0909 56.25V57.75C59.1068 57.75 60.75 56.1257 60.75 54.1111H59.25ZM57.0909 46.1944C58.2883 46.1944 59.25 47.157 59.25 48.3333H60.75C60.75 46.3187 59.1068 44.6944 57.0909 44.6944V46.1944ZM30.9091 44.6944C28.8932 44.6944 27.25 46.3187 27.25 48.3333H28.75C28.75 47.157 29.7117 46.1944 30.9091 46.1944V44.6944ZM29.3262 46.8738L33.817 40.9144L32.6191 40.0117L28.1283 45.9711L29.3262 46.8738ZM54.183 40.9144L58.6738 46.8738L59.8717 45.9711L55.3809 40.0117L54.183 40.9144ZM33.8182 51.9722H35.2727V50.4722H33.8182V51.9722ZM41.0909 51.9722H42.5455V50.4722H41.0909V51.9722ZM34.8153 40.4167H36.7273V38.9167H34.8153V40.4167ZM37.4383 39.428L34.5292 30.7613L33.1072 31.2387L36.0163 39.9053L37.4383 39.428ZM36.7273 40.4167H51.2727V38.9167H36.7273V40.4167ZM51.2727 40.4167H53.1847V38.9167H51.2727V40.4167ZM51.9837 39.9053L54.8928 31.2387L53.4708 30.7613L50.5617 39.428L51.9837 39.9053ZM55.3809 40.0117C54.8613 39.3221 54.048 38.9167 53.1847 38.9167V40.4167C53.5771 40.4167 53.9468 40.601 54.183 40.9144L55.3809 40.0117ZM33.817 40.9144C34.0532 40.601 34.4229 40.4167 34.8153 40.4167V38.9167C33.952 38.9167 33.1387 39.3221 32.6191 40.0117L33.817 40.9144Z" fill="#1333BB"/>
</svg>
