<svg width="88" height="88" viewBox="0 0 88 88" fill="none" xmlns="http://www.w3.org/2000/svg">
<circle cx="44" cy="44" r="44" fill="white"/>
<path d="M17.12 36.5L22.12 51H24.7L29.64 36.5H27.24L23.48 48.46L19.62 36.5H17.12ZM39.2139 51L43.0739 38.8V51H45.3139V36.5H41.6539L38.0339 48.34L34.4139 36.5H30.7539V51H32.9939V38.8L36.8539 51H39.2139ZM50.9883 51H53.2683V38.44H57.9083V36.5H46.3283V38.44H50.9883V51ZM64.0331 44.64C65.5731 44.96 67.0331 45.56 67.0331 47.06C67.0331 48.48 65.7331 49.36 63.8331 49.36C61.7731 49.36 60.4531 48.36 60.0331 46.36H57.7931C58.1131 49.4 60.4131 51.26 63.7531 51.26C66.5531 51.26 69.3331 49.76 69.3331 46.88C69.3331 43.94 66.7931 43.08 64.4731 42.6L62.7531 42.24C61.4931 41.98 60.5531 41.36 60.5531 40.16C60.5531 38.64 62.3731 38.14 63.4331 38.14C64.8131 38.14 66.3731 38.68 66.8531 40.38H69.0531C68.4731 37.46 66.2131 36.24 63.5331 36.24C61.0731 36.24 58.2331 37.52 58.2331 40.26C58.2331 42.7 60.1931 43.86 62.2531 44.28L64.0331 44.64Z" fill="#1333BB"/>
</svg>
