<svg width="88" height="88" viewBox="0 0 88 88" fill="none" xmlns="http://www.w3.org/2000/svg">
<circle cx="44" cy="44" r="44" fill="white"/>
<path d="M28 51.1985V54.0992M28 54.0992H33.5576C34.6244 54.0992 35.6061 53.5194 36.1169 52.5875L39.3688 46.6555M28 54.0992V57M58.2148 43.2712L51.8149 51.0066C50.9091 52.1013 49.3407 52.3841 48.1065 51.6751L39.3688 46.6555M58.2148 43.2712L60 44.2968M58.2148 43.2712L37.5313 31.3891C36.1369 30.5881 34.354 31.0635 33.5489 32.4509L30.28 38.0847C29.4749 39.4721 29.9527 41.2462 31.347 42.0472L39.3688 46.6555M39.0554 39.3701L37.2702 38.3445" stroke="#1333BB" stroke-width="1.5" stroke-linecap="round"/>
</svg>
