<svg width="88" height="88" viewBox="0 0 88 88" fill="none" xmlns="http://www.w3.org/2000/svg">
<circle cx="44" cy="44" r="44" fill="white"/>
<path d="M48 53.75C48.4142 53.75 48.75 53.4142 48.75 53C48.75 52.5858 48.4142 52.25 48 52.25V53.75ZM40 52.25C39.5858 52.25 39.25 52.5858 39.25 53C39.25 53.4142 39.5858 53.75 40 53.75V52.25ZM35 35.75H53V34.25H35V35.75ZM54.25 37V47H55.75V37H54.25ZM33.75 47V37H32.25V47H33.75ZM53 48.25H44V49.75H53V48.25ZM44 48.25H35V49.75H44V48.25ZM43.25 49V53H44.75V49H43.25ZM44 53.75H48V52.25H44V53.75ZM44 52.25H40V53.75H44V52.25ZM32.25 47C32.25 48.5188 33.4812 49.75 35 49.75V48.25C34.3096 48.25 33.75 47.6904 33.75 47H32.25ZM54.25 47C54.25 47.6904 53.6904 48.25 53 48.25V49.75C54.5188 49.75 55.75 48.5188 55.75 47H54.25ZM53 35.75C53.6904 35.75 54.25 36.3096 54.25 37H55.75C55.75 35.4812 54.5188 34.25 53 34.25V35.75ZM35 34.25C33.4812 34.25 32.25 35.4812 32.25 37H33.75C33.75 36.3096 34.3096 35.75 35 35.75V34.25Z" fill="#1333BB"/>
</svg>
