<svg width="50" height="50" viewBox="0 0 50 50" fill="none" xmlns="http://www.w3.org/2000/svg">
<rect width="50" height="50" rx="25" transform="matrix(1 0 0 -1 0 50)" fill="#F2F2F2"/>
<path fill-rule="evenodd" clip-rule="evenodd" d="M12.25 15.4C12.25 13.6603 13.6603 12.25 15.4 12.25L29.8 12.25C31.5397 12.25 32.95 13.6603 32.95 15.4V17.05L34.6 17.05C36.3397 17.05 37.75 18.4603 37.75 20.2V21.4C37.75 21.8142 37.4142 22.15 37 22.15C36.5858 22.15 36.25 21.8142 36.25 21.4V20.2C36.25 19.2887 35.5113 18.55 34.6 18.55L32.95 18.55V29.8C32.95 31.5397 31.5397 32.95 29.8 32.95H18.55L18.55 34.6C18.55 35.5113 19.2887 36.25 20.2 36.25H21.4C21.8142 36.25 22.15 36.5858 22.15 37C22.15 37.4142 21.8142 37.75 21.4 37.75H20.2C18.4603 37.75 17.05 36.3397 17.05 34.6L17.05 32.95H15.4C13.6603 32.95 12.25 31.5397 12.25 29.8L12.25 15.4ZM15.4 13.75C14.4887 13.75 13.75 14.4887 13.75 15.4L13.75 29.8C13.75 30.7113 14.4887 31.45 15.4 31.45H29.8C30.7113 31.45 31.45 30.7113 31.45 29.8V15.4C31.45 14.4887 30.7113 13.75 29.8 13.75L15.4 13.75ZM17.05 21.4C17.05 20.9858 17.3858 20.65 17.8 20.65H22.6C23.0142 20.65 23.35 20.9858 23.35 21.4C23.35 21.8142 23.0142 22.15 22.6 22.15H17.8C17.3858 22.15 17.05 21.8142 17.05 21.4ZM17.05 26.2C17.05 25.7858 17.3858 25.45 17.8 25.45H27.4C27.8142 25.45 28.15 25.7858 28.15 26.2C28.15 26.6142 27.8142 26.95 27.4 26.95H17.8C17.3858 26.95 17.05 26.6142 17.05 26.2ZM37 25.45C37.4142 25.45 37.75 25.7858 37.75 26.2V28.6C37.75 29.0142 37.4142 29.35 37 29.35C36.5858 29.35 36.25 29.0142 36.25 28.6V26.2C36.25 25.7858 36.5858 25.45 37 25.45ZM37 32.65C37.4142 32.65 37.75 32.9858 37.75 33.4V34.6C37.75 36.3397 36.3397 37.75 34.6 37.75H33.4C32.9858 37.75 32.65 37.4142 32.65 37C32.65 36.5858 32.9858 36.25 33.4 36.25H34.6C35.5113 36.25 36.25 35.5113 36.25 34.6V33.4C36.25 32.9858 36.5858 32.65 37 32.65ZM25.45 37C25.45 36.5858 25.7858 36.25 26.2 36.25H28.6C29.0142 36.25 29.35 36.5858 29.35 37C29.35 37.4142 29.0142 37.75 28.6 37.75H26.2C25.7858 37.75 25.45 37.4142 25.45 37Z" fill="#1333BB"/>
</svg>
