<svg width="32" height="32" viewBox="0 0 32 32" fill="none" xmlns="http://www.w3.org/2000/svg">
<path d="M16 32C24.8366 32 32 24.8366 32 16C32 7.16344 24.8366 0 16 0C7.16344 0 0 7.16344 0 16C0 24.8366 7.16344 32 16 32Z" fill="black"/>
<path fill-rule="evenodd" clip-rule="evenodd" d="M15.6845 6.07705C15.6339 10.0957 15.3601 12.352 13.8553 13.8597C12.3506 15.3675 10.0942 15.6458 6.08008 15.6904V16.2858C10.0987 16.3364 12.3491 16.6103 13.8553 18.1165C15.3616 19.6227 15.628 21.8791 15.6845 25.8977H16.2799C16.329 21.8791 16.6029 19.6227 18.1091 18.115C19.6153 16.6073 21.8702 16.329 25.8844 16.2843V15.689C21.8658 15.6383 19.6138 15.3645 18.1091 13.8583C16.6044 12.352 16.3231 10.0927 16.2799 6.07556L15.6845 6.07705Z" fill="white"/>
</svg>
