<svg width="32" height="32" viewBox="0 0 32 32" fill="none" xmlns="http://www.w3.org/2000/svg">
<path d="M16 32C24.8366 32 32 24.8366 32 16C32 7.16344 24.8366 0 16 0C7.16344 0 0 7.16344 0 16C0 24.8366 7.16344 32 16 32Z" fill="#A2B2F6"/>
<path d="M16.5865 21.8998C10.383 21.8998 6.84659 17.6461 6.69775 10.5674H9.80399C9.90668 15.7618 12.1973 17.9631 14.0116 18.4171V10.5674H16.9392V15.0474C18.7253 14.8554 20.614 12.8148 21.2481 10.5674H24.1757C23.6875 13.3343 21.6455 15.3763 20.1943 16.2158C21.3293 16.7794 22.3317 17.5775 23.1353 18.5574C23.9389 19.5372 24.5254 20.6765 24.8559 21.8998H21.6351C20.943 19.7447 19.2179 18.0777 16.9392 17.8515V21.8998H16.5865Z" fill="white"/>
</svg>
