<svg width="32" height="32" viewBox="0 0 32 32" fill="none" xmlns="http://www.w3.org/2000/svg">
<path d="M16 32C24.8366 32 32 24.8366 32 16C32 7.16344 24.8366 0 16 0C7.16344 0 0 7.16344 0 16C0 24.8366 7.16344 32 16 32Z" fill="#A2B2F6"/>
<path fill-rule="evenodd" clip-rule="evenodd" d="M7.33915 15.7247C11.9918 13.6975 15.0941 12.3609 16.6459 11.715C21.0783 9.87239 22.0041 9.55239 22.5994 9.54048C22.8202 9.53619 23.0368 9.60126 23.2186 9.72653C23.3462 9.83655 23.4275 9.99072 23.4463 10.1582C23.4784 10.3664 23.4874 10.5775 23.4731 10.7877C23.2335 13.318 22.1931 19.4337 21.6647 22.2601C21.4415 23.4508 21.0009 23.8571 20.5738 23.8973C19.648 23.9822 18.9365 23.2841 18.0435 22.6962C16.6385 21.7749 15.8452 21.2078 14.4818 20.3029C12.9057 19.261 13.9282 18.694 14.8257 17.7622C15.0608 17.5182 19.1419 13.8032 19.2223 13.4668C19.2329 13.4171 19.2317 13.3657 19.2188 13.3166C19.2058 13.2674 19.1816 13.222 19.1479 13.184C19.099 13.1535 19.0437 13.1348 18.9864 13.1293C18.929 13.1239 18.8712 13.1319 18.8175 13.1528C18.6776 13.1835 16.4341 14.6664 12.0871 17.6015C11.45 18.0391 10.873 18.2524 10.3561 18.2415C9.78604 18.2281 8.69059 17.9185 7.87496 17.6462C6.87626 17.3217 6.08892 17.1505 6.15143 16.6043C6.18814 16.3185 6.58405 16.0253 7.33915 15.7247Z" fill="white"/>
</svg>
