<svg width="32" height="32" viewBox="0 0 32 32" fill="none" xmlns="http://www.w3.org/2000/svg">
<path d="M16 32C24.8366 32 32 24.8366 32 16C32 7.16344 24.8366 0 16 0C7.16344 0 0 7.16344 0 16C0 24.8366 7.16344 32 16 32Z" fill="#A2B2F6"/>
<path d="M23.8929 11.9338C23.7986 11.5823 23.6135 11.2619 23.3562 11.0045C23.0988 10.7472 22.7784 10.5621 22.4269 10.4678C21.135 10.121 15.948 10.121 15.948 10.121C15.948 10.121 10.761 10.121 9.46761 10.4678C9.11655 10.5629 8.7965 10.7483 8.53931 11.0055C8.28211 11.2627 8.09672 11.5827 8.00157 11.9338C7.65478 13.2272 7.65479 15.9256 7.65479 15.9256C7.65479 15.9256 7.65478 18.624 8.00157 19.9174C8.09672 20.2685 8.28211 20.5885 8.53931 20.8457C8.7965 21.1029 9.11655 21.2883 9.46761 21.3835C10.761 21.7303 15.948 21.7303 15.948 21.7303C15.948 21.7303 21.1335 21.7303 22.4269 21.3835C22.7784 21.2892 23.0988 21.104 23.3562 20.8467C23.6135 20.5894 23.7986 20.2689 23.8929 19.9174C24.2397 18.624 24.2397 15.9256 24.2397 15.9256C24.2397 15.9256 24.2397 13.2272 23.8929 11.9338ZM14.2885 18.4127V13.4386L18.6047 15.9256L14.2885 18.4127Z" fill="white"/>
</svg>
