<svg width="16" height="17" viewBox="0 0 16 17" fill="none" xmlns="http://www.w3.org/2000/svg">
<path d="M3.18902 7.15956C2.8911 6.87179 2.41629 6.88002 2.12852 7.17795C1.84075 7.47588 1.84899 7.95068 2.14691 8.23845L3.18902 7.15956ZM6.43267 11.3354L5.91162 11.8748C6.20227 12.1556 6.66308 12.1556 6.95373 11.8748L6.43267 11.3354ZM13.8557 5.20815C14.1536 4.92038 14.1619 4.44557 13.8741 4.14765C13.5863 3.84972 13.1115 3.84148 12.8136 4.12926L13.8557 5.20815ZM2.14691 8.23845L5.91162 11.8748L6.95373 10.7959L3.18902 7.15956L2.14691 8.23845ZM6.95373 11.8748L8.52236 10.3597L7.48025 9.28077L5.91162 10.7959L6.95373 11.8748ZM8.52236 10.3597L13.8557 5.20815L12.8136 4.12926L7.48025 9.28077L8.52236 10.3597Z" fill="#1333BB"/>
</svg>
