<svg width="50" height="50" viewBox="0 0 50 50" fill="none" xmlns="http://www.w3.org/2000/svg">
<path d="M25 50C38.8071 50 50 38.8071 50 25C50 11.1929 38.8071 0 25 0C11.1929 0 0 11.1929 0 25C0 38.8071 11.1929 50 25 50Z" fill="#1333BB"/>
<path fill-rule="evenodd" clip-rule="evenodd" d="M11.4677 24.5698C18.7375 21.4024 23.5848 19.314 26.0096 18.3047C32.9351 15.4257 34.3817 14.9257 35.3119 14.907C35.6568 14.9003 35.9952 15.002 36.2793 15.1977C36.4787 15.3697 36.6058 15.6105 36.6351 15.8722C36.6852 16.1975 36.6993 16.5274 36.677 16.8559C36.3026 20.8094 34.677 30.3652 33.8514 34.7815C33.5026 36.6419 32.8142 37.2768 32.1468 37.3396C30.7003 37.4722 29.5886 36.3815 28.1933 35.4629C25.9979 34.0233 24.7584 33.1373 22.6282 31.7233C20.1654 30.0954 21.763 29.2094 23.1654 27.7536C23.5328 27.3722 29.9096 21.5675 30.0351 21.0419C30.0517 20.9643 30.0498 20.8839 30.0296 20.8072C30.0094 20.7304 29.9715 20.6595 29.9189 20.6001C29.8425 20.5524 29.7561 20.5231 29.6665 20.5146C29.5769 20.5062 29.4865 20.5187 29.4026 20.5512C29.184 20.5993 25.6786 22.9164 18.8863 27.5024C17.891 28.1861 16.9894 28.5195 16.1817 28.5024C15.291 28.4815 13.5793 27.9977 12.3049 27.5722C10.7444 27.0652 9.51421 26.7977 9.61188 25.9443C9.66925 25.4977 10.2878 25.0396 11.4677 24.5698Z" fill="white"/>
</svg>
