<svg width="50" height="50" viewBox="0 0 50 50" fill="none" xmlns="http://www.w3.org/2000/svg">
<path d="M25 50C38.8071 50 50 38.8071 50 25C50 11.1929 38.8071 0 25 0C11.1929 0 0 11.1929 0 25C0 38.8071 11.1929 50 25 50Z" fill="#1333BB"/>
<path fill-rule="evenodd" clip-rule="evenodd" d="M24.507 9.49549C24.4279 15.7746 24 19.3001 21.6488 21.656C19.2977 24.0118 15.7721 24.4466 9.5 24.5164V25.4466C15.7791 25.5257 19.2953 25.9536 21.6488 28.3071C24.0023 30.6606 24.4186 34.1862 24.507 40.4653H25.4372C25.514 34.1862 25.9419 30.6606 28.2954 28.3048C30.6488 25.949 34.1721 25.5141 40.4442 25.4443V24.5141C34.1651 24.435 30.6465 24.0071 28.2954 21.6536C25.9442 19.3001 25.5047 15.7699 25.4372 9.49316L24.507 9.49549Z" fill="white"/>
</svg>
