<svg width="50" height="50" viewBox="0 0 50 50" fill="none" xmlns="http://www.w3.org/2000/svg">
<path d="M25 50C38.8071 50 50 38.8071 50 25C50 11.1929 38.8071 0 25 0C11.1929 0 0 11.1929 0 25C0 38.8071 11.1929 50 25 50Z" fill="#1333BB"/>
<path d="M25.916 34.2187C16.223 34.2187 10.6974 27.5722 10.4648 16.5117H15.3183C15.4788 24.628 19.0579 28.0675 21.8928 28.7768V16.5117H26.4672V23.5117C29.2579 23.2117 32.209 20.0233 33.1997 16.5117H37.7741C37.0114 20.835 33.8207 24.0257 31.5532 25.3373C33.3266 26.218 34.8929 27.465 36.1485 28.9961C37.4041 30.5271 38.3205 32.3072 38.8369 34.2187H33.8044C32.723 30.8513 30.0276 28.2466 26.4672 27.8931V34.2187H25.916Z" fill="white"/>
</svg>
