<svg width="50" height="50" viewBox="0 0 50 50" fill="none" xmlns="http://www.w3.org/2000/svg">
<path d="M25 50C38.8071 50 50 38.8071 50 25C50 11.1929 38.8071 0 25 0C11.1929 0 0 11.1929 0 25C0 38.8071 11.1929 50 25 50Z" fill="#1333BB"/>
<path d="M37.333 18.6465C37.1856 18.0973 36.8964 17.5966 36.4943 17.1945C36.0923 16.7925 35.5915 16.5032 35.0423 16.3558C33.0237 15.814 24.9191 15.814 24.9191 15.814C24.9191 15.814 16.8144 15.814 14.7935 16.3558C14.2449 16.5045 13.7449 16.7942 13.343 17.196C12.9411 17.5979 12.6515 18.098 12.5028 18.6465C11.9609 20.6675 11.9609 24.8837 11.9609 24.8837C11.9609 24.8837 11.9609 29.1 12.5028 31.1209C12.6515 31.6695 12.9411 32.1695 13.343 32.5714C13.7449 32.9733 14.2449 33.263 14.7935 33.4116C16.8144 33.9535 24.9191 33.9535 24.9191 33.9535C24.9191 33.9535 33.0214 33.9535 35.0423 33.4116C35.5915 33.2642 36.0923 32.975 36.4943 32.5729C36.8964 32.1709 37.1856 31.6701 37.333 31.1209C37.8749 29.1 37.8749 24.8837 37.8749 24.8837C37.8749 24.8837 37.8749 20.6675 37.333 18.6465ZM22.326 28.7698V20.9977L29.0702 24.8837L22.326 28.7698Z" fill="white"/>
</svg>
