<svg width="53" height="16" viewBox="0 0 53 16" fill="none" xmlns="http://www.w3.org/2000/svg">
<path d="M0.12 0.5L5.12 15H7.7L12.64 0.5H10.24L6.48 12.46L2.62 0.5H0.12ZM22.2139 15L26.0739 2.8V15H28.3139V0.5H24.6539L21.0339 12.34L17.4139 0.5H13.7539V15H15.9939V2.8L19.8539 15H22.2139ZM33.9883 15H36.2683V2.44H40.9083V0.5H29.3283V2.44H33.9883V15ZM47.0331 8.64C48.5731 8.96 50.0331 9.56 50.0331 11.06C50.0331 12.48 48.7331 13.36 46.8331 13.36C44.7731 13.36 43.4531 12.36 43.0331 10.36H40.7931C41.1131 13.4 43.4131 15.26 46.7531 15.26C49.5531 15.26 52.3331 13.76 52.3331 10.88C52.3331 7.94 49.7931 7.08 47.4731 6.6L45.7531 6.24C44.4931 5.98 43.5531 5.36 43.5531 4.16C43.5531 2.64 45.3731 2.14 46.4331 2.14C47.8131 2.14 49.3731 2.68 49.8531 4.38H52.0531C51.4731 1.46 49.2131 0.239999 46.5331 0.239999C44.0731 0.239999 41.2331 1.52 41.2331 4.26C41.2331 6.7 43.1931 7.86 45.2531 8.28L47.0331 8.64Z" fill="#1333BB"/>
</svg>
