<svg width="50" height="50" viewBox="0 0 50 50" fill="none" xmlns="http://www.w3.org/2000/svg">
<rect x="0.5" y="0.5" width="49" height="49" rx="24.5" fill="white" stroke="#E1E1E1"/>
<path fill-rule="evenodd" clip-rule="evenodd" d="M25.6648 15.9648C25.321 15.812 24.9285 15.812 24.5846 15.9648L18.4398 18.6959C17.9279 18.9233 17.6135 19.4471 17.6534 20.0058L18.1653 27.1723C18.3331 29.522 19.7281 31.6088 21.835 32.6623L24.53 34.0098C24.9044 34.197 25.3451 34.197 25.7194 34.0098L28.4144 32.6623C30.5214 31.6088 31.9163 29.522 32.0841 27.1723L32.596 20.0058C32.6359 19.4471 32.3215 18.9233 31.8097 18.6959L25.6648 15.9648ZM24.2191 15.1424C24.7957 14.8861 25.4538 14.8861 26.0303 15.1424L32.1752 17.8734C33.0334 18.2549 33.5607 19.1332 33.4937 20.0699L32.9819 27.2364C32.7914 29.9032 31.2082 32.2716 28.8169 33.4673L26.1219 34.8148C25.4942 35.1287 24.7553 35.1287 24.1275 34.8148L21.4325 33.4673C19.0412 32.2717 17.4581 29.9032 17.2676 27.2364L16.7557 20.0699C16.6888 19.1332 17.216 18.2549 18.0742 17.8734L24.2191 15.1424ZM28.1126 22.9233C28.2884 23.099 28.2884 23.3839 28.1126 23.5597L25.4429 26.2294C25.2672 26.4051 24.9823 26.4051 24.8065 26.2294L23.0267 24.4496C22.851 24.2739 22.851 23.9889 23.0267 23.8132C23.2024 23.6375 23.4874 23.6375 23.6631 23.8132L25.1247 25.2748L27.4762 22.9233C27.652 22.7476 27.9369 22.7476 28.1126 22.9233Z" fill="#1333BB" stroke="#1333BB" stroke-width="0.5"/>
</svg>
