<svg width="80" height="80" viewBox="0 0 80 80" fill="none" xmlns="http://www.w3.org/2000/svg">
<rect width="80" height="80" rx="40" fill="white"/>
<path d="M27 34.0213C27 36.2317 28.8109 38.0426 30.9947 38.0426C33.2317 38.0426 35.0426 36.2317 35.0426 34.0213C35.0426 31.7843 33.2317 30 30.9947 30C28.8109 30 27 31.7843 27 34.0213ZM29.0506 34.0213C29.0506 32.8495 29.8495 31.9174 30.9947 31.9174C32.1664 31.9174 33.0186 32.8495 33.0186 34.0213C33.0186 35.1664 32.1664 36.1252 30.9947 36.1252C29.8495 36.1252 29.0506 35.1664 29.0506 34.0213Z" fill="#183FE7"/>
<path d="M50.2201 43.3688C49.6076 45.9254 47.77 47.47 44.8939 47.47C41.565 47.47 39.0883 44.727 39.0883 39.9601C39.0883 35.1398 41.5916 32.53 44.8672 32.53C47.7168 32.53 49.5277 34.1012 50.1402 36.6312H53.0696C52.2973 32.3968 49.1282 30 45.0004 30C39.4611 30 35.9724 33.9148 35.9724 39.9601C35.9724 45.8988 39.2214 50 44.814 50C49.1282 50 52.2973 47.6298 53.1495 43.3688H50.2201Z" fill="#183FE7"/>
</svg>
