<svg width="52" height="34" viewBox="0 0 52 34" fill="none" xmlns="http://www.w3.org/2000/svg">
<path d="M7.4 28.2C3.86538 28.2 1 25.3346 1 21.8V7.4C1 3.86538 3.86538 1 7.4 1H44.2C47.7346 1 50.6 3.86538 50.6 7.4V21.8C50.6 25.3346 47.7346 28.2 44.2 28.2M7.4 28.2H12M7.4 28.2V33M44.2 28.2H39.6M44.2 28.2V33M25.8 28.2H21.2M25.8 28.2H30.4M25.8 28.2V33M35 28.2H30.4M35 28.2H39.6M35 28.2V33M16.6 28.2H12M16.6 28.2H21.2M16.6 28.2V33M12 28.2V33M21.2 28.2V33M30.4 28.2V33M39.6 28.2V33" stroke="#1333BB" stroke-width="1.5" stroke-linecap="round"/>
</svg>
