<svg width="80" height="80" viewBox="0 0 80 80" fill="none" xmlns="http://www.w3.org/2000/svg">
<rect x="0.5" y="0.5" width="79" height="79" rx="39.5" fill="white"/>
<path d="M50.5 35.2727H51.25C51.25 35.0755 51.1723 34.8862 51.0337 34.7458L50.5 35.2727ZM42.3333 27L42.8671 26.4731C42.7262 26.3304 42.5339 26.25 42.3333 26.25V27ZM51.25 45.9091V35.2727H49.75V45.9091H51.25ZM51.0337 34.7458L42.8671 26.4731L41.7996 27.5269L49.9663 35.7996L51.0337 34.7458ZM42.3333 26.25H36.5V27.75H42.3333V26.25ZM41.5833 27V32.9091H43.0833V27H41.5833ZM44.6667 36.0227H50.5V34.5227H44.6667V36.0227ZM36.5 49.0227H45.8333V47.5227H36.5V49.0227ZM45.8333 49.0227H48.1667V47.5227H45.8333V49.0227ZM45.0833 48.2727V50.6364H46.5833V48.2727H45.0833ZM43.5 52.25H31.8333V53.75H43.5V52.25ZM30.25 50.6364V34.0909H28.75V50.6364H30.25ZM33.4167 29.3636V31.7273H34.9167V29.3636H33.4167ZM33.4167 31.7273V45.9091H34.9167V31.7273H33.4167ZM31.8333 32.4773H34.1667V30.9773H31.8333V32.4773ZM30.25 34.0909C30.25 33.1906 30.968 32.4773 31.8333 32.4773V30.9773C30.1214 30.9773 28.75 32.3804 28.75 34.0909H30.25ZM31.8333 52.25C30.968 52.25 30.25 51.5367 30.25 50.6364H28.75C28.75 52.3468 30.1214 53.75 31.8333 53.75V52.25ZM45.0833 50.6364C45.0833 51.5367 44.3654 52.25 43.5 52.25V53.75C45.212 53.75 46.5833 52.3468 46.5833 50.6364H45.0833ZM49.75 45.9091C49.75 46.8094 49.032 47.5227 48.1667 47.5227V49.0227C49.8786 49.0227 51.25 47.6195 51.25 45.9091H49.75ZM36.5 47.5227C35.6346 47.5227 34.9167 46.8094 34.9167 45.9091H33.4167C33.4167 47.6196 34.788 49.0227 36.5 49.0227V47.5227ZM41.5833 32.9091C41.5833 34.6196 42.9547 36.0227 44.6667 36.0227V34.5227C43.8013 34.5227 43.0833 33.8094 43.0833 32.9091H41.5833ZM36.5 26.25C34.788 26.25 33.4167 27.6532 33.4167 29.3636H34.9167C34.9167 28.4633 35.6346 27.75 36.5 27.75V26.25Z" fill="#A61A1A"/>
<rect x="0.5" y="0.5" width="79" height="79" rx="39.5" stroke="#F2F2F2"/>
</svg>
