<svg width="51" height="16" viewBox="0 0 51 16" fill="none" xmlns="http://www.w3.org/2000/svg">
<path d="M10.2 7.74C10.2 12.52 7.36 13.12 4.46 13.12H2.88V2.38H4.46C7.36 2.38 10.2 3 10.2 7.74ZM0.6 0.5V15H4.56C9.16 15 12.56 13.34 12.56 7.74C12.56 2.16 9.16 0.5 4.56 0.5H0.6ZM16.3875 7.74C16.3875 4.1 18.3675 2.14 20.9075 2.14C23.4075 2.14 25.4075 4.1 25.4075 7.74C25.4075 11.36 23.4075 13.36 20.9075 13.36C18.3675 13.36 16.3875 11.36 16.3875 7.74ZM27.7475 7.74C27.7475 3.32 25.1075 0.239999 20.9075 0.239999C16.6875 0.239999 14.0475 3.32 14.0475 7.74C14.0475 12.16 16.6875 15.26 20.9075 15.26C25.1075 15.26 27.7475 12.16 27.7475 7.74ZM32.0508 15H34.3308V2.44H38.9708V0.5H27.3908V2.44H32.0508V15ZM45.0956 8.64C46.6356 8.96 48.0956 9.56 48.0956 11.06C48.0956 12.48 46.7956 13.36 44.8956 13.36C42.8356 13.36 41.5156 12.36 41.0956 10.36H38.8556C39.1756 13.4 41.4756 15.26 44.8156 15.26C47.6156 15.26 50.3956 13.76 50.3956 10.88C50.3956 7.94 47.8556 7.08 45.5356 6.6L43.8156 6.24C42.5556 5.98 41.6156 5.36 41.6156 4.16C41.6156 2.64 43.4356 2.14 44.4956 2.14C45.8756 2.14 47.4356 2.68 47.9156 4.38H50.1156C49.5356 1.46 47.2756 0.239999 44.5956 0.239999C42.1356 0.239999 39.2956 1.52 39.2956 4.26C39.2956 6.7 41.2556 7.86 43.3156 8.28L45.0956 8.64Z" fill="#183FE7"/>
</svg>
