<svg width="80" height="80" viewBox="0 0 80 80" fill="none" xmlns="http://www.w3.org/2000/svg">
<path fill-rule="evenodd" clip-rule="evenodd" d="M37.0865 34.1404C39.9777 29.3218 45.4398 26.663 51.0158 27.36C51.8647 27.4661 52.5334 28.1347 52.6395 28.9837C53.3365 34.5597 50.6777 40.0218 45.8591 42.9129L44.1786 43.9212V47.364C44.1786 48.3173 43.7453 49.2189 43.0008 49.8145L39.8667 52.3218C38.5938 53.3401 36.7082 52.4338 36.7082 50.8037V48.3754C35.5357 48.894 34.1463 48.6488 33.2211 47.7236L32.2759 46.7783C31.3507 45.8532 31.1055 44.4638 31.6241 43.2913H29.1958C27.5657 43.2913 26.6594 41.4057 27.6777 40.1328L30.185 36.9986C30.7805 36.2542 31.6822 35.8209 32.6355 35.8209H36.0782L37.0865 34.1404ZM35.1782 37.3209H32.6355C32.1379 37.3209 31.6672 37.5471 31.3563 37.9357L28.849 41.0698C28.6164 41.3606 28.8234 41.7913 29.1958 41.7913H32.496L35.1782 37.3209ZM38.2082 47.5035V50.8037C38.2082 51.1761 38.6389 51.3831 38.9297 51.1505L42.0638 48.6432C42.4524 48.3323 42.6786 47.8616 42.6786 47.364V44.8212L38.2082 47.5035ZM50.8298 28.8484C45.8431 28.225 40.9584 30.6028 38.3728 34.9121L33.0902 43.7165C32.7034 44.361 32.805 45.1861 33.3365 45.7177L34.2818 46.6629C34.8133 47.1945 35.6384 47.2961 36.283 46.9093L45.0874 41.6267C49.3967 39.0411 51.7744 34.1564 51.1511 29.1697C51.1301 29.0017 50.9978 28.8694 50.8298 28.8484ZM47.5412 32.4583C47.8341 32.7512 47.8341 33.226 47.5412 33.5189L46.3471 34.713C46.0542 35.0059 45.5794 35.0059 45.2865 34.713C44.9936 34.4201 44.9936 33.9452 45.2865 33.6523L46.4806 32.4583C46.7734 32.1654 47.2483 32.1654 47.5412 32.4583ZM30.8239 49.1755C31.1168 49.4684 31.1168 49.9433 30.8239 50.2362L29.6298 51.4303C29.337 51.7232 28.8621 51.7232 28.5692 51.4303C28.2763 51.1374 28.2763 50.6625 28.5692 50.3696L29.7633 49.1755C30.0562 48.8826 30.531 48.8826 30.8239 49.1755Z" fill="#1333BB"/>
<rect x="0.5" y="0.5" width="79" height="79" rx="39.5" stroke="#F2F2F2"/>
</svg>
