<svg width="80" height="80" viewBox="0 0 80 80" fill="none" xmlns="http://www.w3.org/2000/svg">
<path fill-rule="evenodd" clip-rule="evenodd" d="M27.25 30.4C27.25 28.6603 28.6603 27.25 30.4 27.25H44.8C46.5397 27.25 47.95 28.6603 47.95 30.4V32.05H49.6C51.3397 32.05 52.75 33.4603 52.75 35.2V36.4C52.75 36.8142 52.4142 37.15 52 37.15C51.5858 37.15 51.25 36.8142 51.25 36.4V35.2C51.25 34.2887 50.5113 33.55 49.6 33.55H47.95V44.8C47.95 46.5397 46.5397 47.95 44.8 47.95H33.55V49.6C33.55 50.5113 34.2887 51.25 35.2 51.25H36.4C36.8142 51.25 37.15 51.5858 37.15 52C37.15 52.4142 36.8142 52.75 36.4 52.75H35.2C33.4603 52.75 32.05 51.3397 32.05 49.6V47.95H30.4C28.6603 47.95 27.25 46.5397 27.25 44.8V30.4ZM30.4 28.75C29.4887 28.75 28.75 29.4887 28.75 30.4V44.8C28.75 45.7113 29.4887 46.45 30.4 46.45H44.8C45.7113 46.45 46.45 45.7113 46.45 44.8V30.4C46.45 29.4887 45.7113 28.75 44.8 28.75H30.4ZM32.05 36.4C32.05 35.9858 32.3858 35.65 32.8 35.65H37.6C38.0142 35.65 38.35 35.9858 38.35 36.4C38.35 36.8142 38.0142 37.15 37.6 37.15H32.8C32.3858 37.15 32.05 36.8142 32.05 36.4ZM32.05 41.2C32.05 40.7858 32.3858 40.45 32.8 40.45H42.4C42.8142 40.45 43.15 40.7858 43.15 41.2C43.15 41.6142 42.8142 41.95 42.4 41.95H32.8C32.3858 41.95 32.05 41.6142 32.05 41.2ZM52 40.45C52.4142 40.45 52.75 40.7858 52.75 41.2V43.6C52.75 44.0142 52.4142 44.35 52 44.35C51.5858 44.35 51.25 44.0142 51.25 43.6V41.2C51.25 40.7858 51.5858 40.45 52 40.45ZM52 47.65C52.4142 47.65 52.75 47.9858 52.75 48.4V49.6C52.75 51.3397 51.3397 52.75 49.6 52.75H48.4C47.9858 52.75 47.65 52.4142 47.65 52C47.65 51.5858 47.9858 51.25 48.4 51.25H49.6C50.5113 51.25 51.25 50.5113 51.25 49.6V48.4C51.25 47.9858 51.5858 47.65 52 47.65ZM40.45 52C40.45 51.5858 40.7858 51.25 41.2 51.25H43.6C44.0142 51.25 44.35 51.5858 44.35 52C44.35 52.4142 44.0142 52.75 43.6 52.75H41.2C40.7858 52.75 40.45 52.4142 40.45 52Z" fill="#1333BB"/>
<rect x="0.5" y="0.5" width="79" height="79" rx="39.5" stroke="#F2F2F2"/>
</svg>
