<svg width="80" height="80" viewBox="0 0 80 80" fill="none" xmlns="http://www.w3.org/2000/svg">
<path fill-rule="evenodd" clip-rule="evenodd" d="M35.4182 24.75C34.9429 24.75 34.5507 25.33 34.8529 25.853L37.599 30.6063H42.3998L45.1459 25.853C45.4481 25.33 45.056 24.75 44.5806 24.75H35.4182ZM42.1788 32.1063H37.82L35.1944 51.1938C35.1567 51.4683 35.268 51.7318 35.4647 51.885L39.6103 55.1141L39.1494 55.7057L39.6103 55.1141C39.843 55.2953 40.1558 55.2953 40.3885 55.1141L40.8494 55.7057L40.3885 55.1141L44.5341 51.885C44.7308 51.7318 44.8421 51.4683 44.8044 51.1938L42.1788 32.1063ZM36.3881 31.5089L33.5541 26.6034C32.7232 25.1652 33.6913 23.25 35.4182 23.25H44.5806C46.3075 23.25 47.2756 25.1652 46.4447 26.6034L43.6107 31.5089L46.2904 50.9894C46.3989 51.7786 46.0868 52.577 45.4558 53.0684L41.3103 56.2974C40.5356 56.9009 39.4632 56.9009 38.6885 56.2974L34.543 53.0684L34.9982 52.484L34.543 53.0684C33.9121 52.577 33.5999 51.7786 33.7084 50.9894L36.3881 31.5089Z" fill="#1333BB"/>
<rect x="0.5" y="0.5" width="79" height="79" rx="39.5" stroke="#F2F2F2"/>
</svg>
