<svg width="80" height="80" viewBox="0 0 80 80" fill="none" xmlns="http://www.w3.org/2000/svg">
<path fill-rule="evenodd" clip-rule="evenodd" d="M35.2 27.25C35.6142 27.25 35.95 27.5858 35.95 28V29.65H39.25V28C39.25 27.5858 39.5858 27.25 40 27.25C40.4142 27.25 40.75 27.5858 40.75 28V29.65H44.05V28C44.05 27.5858 44.3858 27.25 44.8 27.25C45.2142 27.25 45.55 27.5858 45.55 28V29.65H47.2C48.9397 29.65 50.35 31.0603 50.35 32.8V34.45H52C52.4142 34.45 52.75 34.7858 52.75 35.2C52.75 35.6142 52.4142 35.95 52 35.95H50.35V39.25H52C52.4142 39.25 52.75 39.5858 52.75 40C52.75 40.4142 52.4142 40.75 52 40.75H50.35V44.05H52C52.4142 44.05 52.75 44.3858 52.75 44.8C52.75 45.2142 52.4142 45.55 52 45.55H50.35V47.2C50.35 48.9397 48.9397 50.35 47.2 50.35H45.55V52C45.55 52.4142 45.2142 52.75 44.8 52.75C44.3858 52.75 44.05 52.4142 44.05 52V50.35H40.75V52C40.75 52.4142 40.4142 52.75 40 52.75C39.5858 52.75 39.25 52.4142 39.25 52V50.35H35.95V52C35.95 52.4142 35.6142 52.75 35.2 52.75C34.7858 52.75 34.45 52.4142 34.45 52V50.35H32.8C31.0603 50.35 29.65 48.9397 29.65 47.2V45.55H28C27.5858 45.55 27.25 45.2142 27.25 44.8C27.25 44.3858 27.5858 44.05 28 44.05H29.65V40.75H28C27.5858 40.75 27.25 40.4142 27.25 40C27.25 39.5858 27.5858 39.25 28 39.25H29.65V35.95H28C27.5858 35.95 27.25 35.6142 27.25 35.2C27.25 34.7858 27.5858 34.45 28 34.45H29.65V32.8C29.65 31.0603 31.0603 29.65 32.8 29.65H34.45V28C34.45 27.5858 34.7858 27.25 35.2 27.25ZM32.8 31.15C31.8887 31.15 31.15 31.8887 31.15 32.8V47.2C31.15 48.1113 31.8887 48.85 32.8 48.85H47.2C48.1113 48.85 48.85 48.1113 48.85 47.2V32.8C48.85 31.8887 48.1113 31.15 47.2 31.15H32.8ZM34.45 35.2C34.45 34.7858 34.7858 34.45 35.2 34.45H44.8C45.2142 34.45 45.55 34.7858 45.55 35.2V44.8C45.55 45.2142 45.2142 45.55 44.8 45.55H35.2C34.7858 45.55 34.45 45.2142 34.45 44.8V35.2ZM35.95 35.95V44.05H44.05V35.95H35.95Z" fill="#1333BB"/>
<rect x="0.5" y="0.5" width="79" height="79" rx="39.5" stroke="#F2F2F2"/>
</svg>
