<svg width="50" height="50" viewBox="0 0 50 50" fill="none" xmlns="http://www.w3.org/2000/svg">
<rect width="50" height="50" rx="25" transform="matrix(1 0 0 -1 0 50)" fill="#F2F2F2"/>
<path fill-rule="evenodd" clip-rule="evenodd" d="M17.3672 18.6767C17.9849 17.6651 19.0882 17.0498 20.2751 17.0498C21.8274 17.0498 23.1427 18.0856 23.5481 19.5062C23.9728 19.2526 24.4696 19.1069 24.9996 19.1069C25.5296 19.1069 26.0264 19.2526 26.4511 19.5062C26.8565 18.0856 28.1719 17.0498 29.7241 17.0498C30.911 17.0498 32.0143 17.6651 32.632 18.6767L36.2459 24.595C36.8167 25.4473 37.1496 26.4716 37.1496 27.5712C37.1496 30.5471 34.7205 32.9498 31.736 32.9498C28.7515 32.9498 26.3223 30.5471 26.3223 27.5712C26.3223 26.8546 25.7355 26.2641 24.9996 26.2641C24.2637 26.2641 23.6769 26.8546 23.6769 27.5712C23.6769 30.5471 21.2478 32.9498 18.2632 32.9498C15.2787 32.9498 12.8496 30.5471 12.8496 27.5712C12.8496 26.4716 13.1825 25.4473 13.7533 24.595L17.3672 18.6767ZM16.8676 22.3732C17.3129 22.2554 17.7808 22.1927 18.2632 22.1927C19.8005 22.1927 21.1904 22.8301 22.1769 23.855V20.4316C22.1769 19.3977 21.3308 18.5498 20.2751 18.5498C19.6074 18.5498 18.9908 18.896 18.6474 19.4585L16.8676 22.3732ZM23.6769 21.9141V25.0909C24.0719 24.8822 24.5223 24.7641 24.9996 24.7641C25.4769 24.7641 25.9273 24.8822 26.3223 25.0909V21.9141C26.3223 21.1975 25.7355 20.6069 24.9996 20.6069C24.2637 20.6069 23.6769 21.1975 23.6769 21.9141ZM27.8223 23.855C28.8088 22.8301 30.1987 22.1927 31.736 22.1927C32.2185 22.1927 32.6863 22.2554 33.1316 22.3732L31.3518 19.4585C31.0084 18.896 30.3918 18.5498 29.7241 18.5498C28.6684 18.5498 27.8223 19.3977 27.8223 20.4316V23.855ZM27.8223 27.5712C27.8223 29.708 29.5692 31.4498 31.736 31.4498C33.9028 31.4498 35.6496 29.708 35.6496 27.5712C35.6496 26.7741 35.4078 26.0349 34.9925 25.4192C34.2902 24.378 33.0947 23.6927 31.736 23.6927C29.5692 23.6927 27.8223 25.4345 27.8223 27.5712ZM22.1769 27.5712C22.1769 25.4345 20.43 23.6927 18.2632 23.6927C16.9045 23.6927 15.709 24.378 15.0067 25.4192C14.5914 26.0349 14.3496 26.7741 14.3496 27.5712C14.3496 29.708 16.0965 31.4498 18.2632 31.4498C20.43 31.4498 22.1769 29.708 22.1769 27.5712Z" fill="#1333BB"/>
</svg>
