<svg width="50" height="50" viewBox="0 0 50 50" fill="none" xmlns="http://www.w3.org/2000/svg">
<rect width="50" height="50" rx="25" transform="matrix(1 0 0 -1 0 50)" fill="#F2F2F2"/>
<path d="M25.0403 16C21.8963 16 19.2803 17.704 19.2803 21.376H20.8403C20.8403 19.264 22.0163 17.32 24.9203 17.32C27.1523 17.32 28.7363 18.304 28.7363 20.2C28.7363 22 27.5123 23.2 26.3123 24.016C24.4883 25.336 23.3603 26.176 23.3603 28.528V29.608H24.8723V28.528C24.8723 26.728 25.7123 26.128 27.1523 25.12C28.6883 24.088 30.2963 22.408 30.2963 20.152C30.2963 17.344 27.8243 16 25.0403 16ZM25.1843 33.712V31.456H23.0963V33.712H25.1843Z" fill="#1333BB"/>
</svg>
