<svg width="22" height="18" viewBox="0 0 22 18" fill="none" xmlns="http://www.w3.org/2000/svg">
<path d="M2.15002 10.7333L2.15002 6.39995H0.650024L0.650024 10.7333H2.15002ZM19.85 6.39995V10.7333H21.35V6.39995H19.85ZM4.01821 17.5499H17.9818V16.05H4.01821V17.5499ZM3.14548 5.41662L7.50912 5.41662V3.91662L3.14548 3.91662L3.14548 5.41662ZM8.25912 4.66662V2.93328L6.75912 2.93328V4.66662L8.25912 4.66662ZM9.25457 1.94995L12.7455 1.94995V0.449951L9.25457 0.449951V1.94995ZM7.50912 5.41662H14.4909V3.91662L7.50912 3.91662V5.41662ZM14.4909 5.41662L18.8546 5.41662V3.91662L14.4909 3.91662V5.41662ZM13.7409 2.93328V4.66662H15.2409V2.93328H13.7409ZM13.4955 11.6V10.7333H11.9955V11.6H13.4955ZM11.8728 9.11662H10.1273L10.1273 10.6166L11.8728 10.6166L11.8728 9.11662ZM8.50457 10.7333V11.6H10.0046V10.7333H8.50457ZM8.50457 11.6V12.4666H10.0046V11.6H8.50457ZM10.1273 14.0833L11.8728 14.0833V12.5833L10.1273 12.5833V14.0833ZM13.4955 12.4666V11.6H11.9955V12.4666H13.4955ZM9.25457 10.85H2.27275V12.35H9.25457V10.85ZM3.02275 15.0666L3.02275 11.6H1.52275L1.52275 15.0666H3.02275ZM19.7273 10.85H12.7455V12.35H19.7273V10.85ZM20.4773 15.0666V11.6H18.9773V15.0666H20.4773ZM11.8728 14.0833C12.764 14.0833 13.4955 13.3644 13.4955 12.4666H11.9955C11.9955 12.5261 11.9455 12.5833 11.8728 12.5833V14.0833ZM12.7455 1.94995C13.3002 1.94995 13.7409 2.39512 13.7409 2.93328H15.2409C15.2409 1.55686 14.1187 0.449951 12.7455 0.449951V1.94995ZM8.25912 2.93328C8.25912 2.39512 8.69986 1.94995 9.25457 1.94995V0.449951C7.88131 0.449951 6.75912 1.55686 6.75912 2.93328L8.25912 2.93328ZM17.9818 17.5499C19.3551 17.5499 20.4773 16.443 20.4773 15.0666H18.9773C18.9773 15.6048 18.5366 16.05 17.9818 16.05V17.5499ZM4.01821 16.05C3.4635 16.05 3.02275 15.6048 3.02275 15.0666H1.52275C1.52275 16.443 2.64494 17.5499 4.01821 17.5499V16.05ZM8.50457 12.4666C8.50457 13.3644 9.23603 14.0833 10.1273 14.0833V12.5833C10.0546 12.5833 10.0046 12.5261 10.0046 12.4666H8.50457ZM19.85 10.7333C19.85 10.7928 19.8 10.85 19.7273 10.85V12.35C20.6186 12.35 21.35 11.6311 21.35 10.7333H19.85ZM21.35 6.39995C21.35 5.02352 20.2278 3.91662 18.8546 3.91662V5.41662C19.4093 5.41662 19.85 5.86179 19.85 6.39995H21.35ZM10.1273 9.11662C9.23603 9.11662 8.50457 9.8355 8.50457 10.7333H10.0046C10.0046 10.6738 10.0546 10.6166 10.1273 10.6166L10.1273 9.11662ZM2.15002 6.39995C2.15002 5.86179 2.59077 5.41662 3.14548 5.41662L3.14548 3.91662C1.77221 3.91662 0.650024 5.02352 0.650024 6.39995H2.15002ZM13.4955 10.7333C13.4955 9.8355 12.764 9.11662 11.8728 9.11662L11.8728 10.6166C11.9455 10.6166 11.9955 10.6738 11.9955 10.7333H13.4955ZM0.650024 10.7333C0.650024 11.6311 1.38148 12.35 2.27275 12.35V10.85C2.20003 10.85 2.15002 10.7928 2.15002 10.7333H0.650024Z" fill="#1333BB"/>
</svg>
