<svg width="34" height="34" viewBox="0 0 34 34" fill="none" xmlns="http://www.w3.org/2000/svg">
<path d="M17.75 1C17.75 0.585786 17.4142 0.25 17 0.25C16.5858 0.25 16.25 0.585786 16.25 1H17.75ZM24.15 1C24.15 0.585786 23.8142 0.25 23.4 0.25C22.9858 0.25 22.65 0.585786 22.65 1H24.15ZM11.35 1C11.35 0.585786 11.0142 0.25 10.6 0.25C10.1858 0.25 9.85 0.585786 9.85 1H11.35ZM16.25 33C16.25 33.4142 16.5858 33.75 17 33.75C17.4142 33.75 17.75 33.4142 17.75 33H16.25ZM22.65 33C22.65 33.4142 22.9858 33.75 23.4 33.75C23.8142 33.75 24.15 33.4142 24.15 33H22.65ZM9.85 33C9.85 33.4142 10.1858 33.75 10.6 33.75C11.0142 33.75 11.35 33.4142 11.35 33H9.85ZM1 16.25C0.585786 16.25 0.25 16.5858 0.25 17C0.25 17.4142 0.585786 17.75 1 17.75V16.25ZM1 9.85C0.585786 9.85 0.25 10.1858 0.25 10.6C0.25 11.0142 0.585786 11.35 1 11.35V9.85ZM1 22.65C0.585786 22.65 0.25 22.9858 0.25 23.4C0.25 23.8142 0.585786 24.15 1 24.15V22.65ZM33 17.75C33.4142 17.75 33.75 17.4142 33.75 17C33.75 16.5858 33.4142 16.25 33 16.25V17.75ZM33 11.35C33.4142 11.35 33.75 11.0142 33.75 10.6C33.75 10.1858 33.4142 9.85 33 9.85V11.35ZM33 24.15C33.4142 24.15 33.75 23.8142 33.75 23.4C33.75 22.9858 33.4142 22.65 33 22.65V24.15ZM10.6 10.6V9.85C10.1858 9.85 9.85 10.1858 9.85 10.6H10.6ZM23.4 10.6H24.15C24.15 10.1858 23.8142 9.85 23.4 9.85V10.6ZM23.4 23.4V24.15C23.8142 24.15 24.15 23.8142 24.15 23.4H23.4ZM10.6 23.4H9.85C9.85 23.8142 10.1858 24.15 10.6 24.15V23.4ZM16.25 1V4.2H17.75V1H16.25ZM17 4.95H23.4V3.45H17V4.95ZM22.65 1V4.2H24.15V1H22.65ZM10.6 4.95H17V3.45H10.6V4.95ZM9.85 1V4.2H11.35V1H9.85ZM16.25 29.8V33H17.75V29.8H16.25ZM23.4 29.05H17V30.55H23.4V29.05ZM22.65 29.8V33H24.15V29.8H22.65ZM17 29.05H10.6V30.55H17V29.05ZM9.85 29.8V33H11.35V29.8H9.85ZM7.4 4.95H10.6V3.45H7.4V4.95ZM10.6 29.05H7.4V30.55H10.6V29.05ZM26.6 29.05H23.4V30.55H26.6V29.05ZM23.4 4.95H26.6V3.45H23.4V4.95ZM4.2 16.25H1V17.75H4.2V16.25ZM4.95 17V10.6H3.45V17H4.95ZM4.95 10.6V7.4H3.45V10.6H4.95ZM4.2 9.85H1V11.35H4.2V9.85ZM4.95 26.6V23.4H3.45V26.6H4.95ZM4.95 23.4V17H3.45V23.4H4.95ZM4.2 22.65H1V24.15H4.2V22.65ZM29.8 17.75H33V16.25H29.8V17.75ZM29.05 7.4V10.6H30.55V7.4H29.05ZM29.05 10.6V17H30.55V10.6H29.05ZM29.8 11.35H33V9.85H29.8V11.35ZM29.05 17V23.4H30.55V17H29.05ZM29.05 23.4V26.6H30.55V23.4H29.05ZM29.8 24.15H33V22.65H29.8V24.15ZM7.4 29.05C6.0469 29.05 4.95 27.9531 4.95 26.6H3.45C3.45 28.7815 5.21848 30.55 7.4 30.55V29.05ZM26.6 30.55C28.7815 30.55 30.55 28.7815 30.55 26.6H29.05C29.05 27.9531 27.9531 29.05 26.6 29.05V30.55ZM26.6 4.95C27.9531 4.95 29.05 6.0469 29.05 7.4H30.55C30.55 5.21848 28.7815 3.45 26.6 3.45V4.95ZM7.4 3.45C5.21848 3.45 3.45 5.21848 3.45 7.4H4.95C4.95 6.0469 6.0469 4.95 7.4 4.95V3.45ZM10.6 11.35H23.4V9.85H10.6V11.35ZM22.65 10.6V23.4H24.15V10.6H22.65ZM23.4 22.65H10.6V24.15H23.4V22.65ZM11.35 23.4V10.6H9.85V23.4H11.35Z" fill="#1333BB"/>
</svg>
