<svg width="18" height="24" viewBox="0 0 18 24" fill="none" xmlns="http://www.w3.org/2000/svg">
<path fill-rule="evenodd" clip-rule="evenodd" d="M2.75 1.5C2.05964 1.5 1.5 2.05964 1.5 2.75L1.5 20.75C1.5 21.4404 2.05964 22 2.75 22H14.75C15.4404 22 16 21.4404 16 20.75L16 8.5H11.75C10.2312 8.5 9 7.26878 9 5.75V1.5L2.75 1.5ZM10.5 2.56066L14.9393 7L11.75 7C11.0596 7 10.5 6.44036 10.5 5.75V2.56066ZM0 2.75C0 1.23122 1.23122 0 2.75 0L9.75 0C9.94891 0 10.1397 0.0790176 10.2803 0.21967L17.2803 7.21967C17.421 7.36032 17.5 7.55109 17.5 7.75L17.5 20.75C17.5 22.2688 16.2688 23.5 14.75 23.5H2.75C1.23122 23.5 0 22.2688 0 20.75L0 2.75ZM5 13.75C5 13.3358 5.33579 13 5.75 13H8.75C9.16421 13 9.5 13.3358 9.5 13.75C9.5 14.1642 9.16421 14.5 8.75 14.5H5.75C5.33579 14.5 5 14.1642 5 13.75ZM5 17.75C5 17.3358 5.33579 17 5.75 17H11.75C12.1642 17 12.5 17.3358 12.5 17.75C12.5 18.1642 12.1642 18.5 11.75 18.5H5.75C5.33579 18.5 5 18.1642 5 17.75Z" fill="#1333BB"/>
</svg>
