<svg width="24" height="28" viewBox="0 0 24 28" fill="none" xmlns="http://www.w3.org/2000/svg">
<path d="M22.5 9.27273H23.25C23.25 9.07549 23.1723 8.88619 23.0337 8.74583L22.5 9.27273ZM14.3333 1L14.8671 0.473102C14.7262 0.330352 14.5339 0.25 14.3333 0.25V1ZM23.25 19.9091V9.27273H21.75V19.9091H23.25ZM23.0337 8.74583L14.8671 0.473102L13.7996 1.5269L21.9663 9.79962L23.0337 8.74583ZM14.3333 0.25H8.5V1.75H14.3333V0.25ZM13.5833 1V6.90909H15.0833V1H13.5833ZM16.6667 10.0227H22.5V8.52273H16.6667V10.0227ZM8.5 23.0227H17.8333V21.5227H8.5V23.0227ZM17.8333 23.0227H20.1667V21.5227H17.8333V23.0227ZM17.0833 22.2727V24.6364H18.5833V22.2727H17.0833ZM15.5 26.25H3.83333V27.75H15.5V26.25ZM2.25 24.6364V8.09091H0.75V24.6364H2.25ZM5.41667 3.36364V5.72727H6.91667V3.36364H5.41667ZM5.41667 5.72727V19.9091H6.91667V5.72727H5.41667ZM3.83333 6.47727H6.16667V4.97727H3.83333V6.47727ZM2.25 8.09091C2.25 7.19057 2.96798 6.47727 3.83333 6.47727V4.97727C2.12136 4.97727 0.75 6.38045 0.75 8.09091H2.25ZM3.83333 26.25C2.96798 26.25 2.25 25.5367 2.25 24.6364H0.75C0.75 26.3468 2.12136 27.75 3.83333 27.75V26.25ZM17.0833 24.6364C17.0833 25.5367 16.3654 26.25 15.5 26.25V27.75C17.212 27.75 18.5833 26.3468 18.5833 24.6364H17.0833ZM21.75 19.9091C21.75 20.8094 21.032 21.5227 20.1667 21.5227V23.0227C21.8786 23.0227 23.25 21.6195 23.25 19.9091H21.75ZM8.5 21.5227C7.63464 21.5227 6.91667 20.8094 6.91667 19.9091H5.41667C5.41667 21.6196 6.78803 23.0227 8.5 23.0227V21.5227ZM13.5833 6.90909C13.5833 8.61955 14.9547 10.0227 16.6667 10.0227V8.52273C15.8013 8.52273 15.0833 7.80943 15.0833 6.90909H13.5833ZM8.5 0.25C6.78803 0.25 5.41667 1.65318 5.41667 3.36364H6.91667C6.91667 2.4633 7.63464 1.75 8.5 1.75V0.25Z" fill="#1333BB"/>
</svg>
