<svg width="20" height="20" viewBox="0 0 20 20" fill="none" xmlns="http://www.w3.org/2000/svg">
<path d="M13.6767 16.0883L14.4208 16.182V16.182L13.6767 16.0883ZM13.9539 13.8875L13.2098 13.7938V13.7938L13.9539 13.8875ZM6.32323 16.0883L5.57911 16.182V16.182L6.32323 16.0883ZM6.04605 13.8875L5.30193 13.9813L6.04605 13.8875ZM18.3548 10.7913L17.6088 10.7138L18.3548 10.7913ZM17.7961 16.5384L18.5427 16.61L17.7961 16.5384ZM2.2038 16.5384L2.95037 16.4667L2.2038 16.5384ZM1.64519 10.7913L2.39117 10.7138L1.64519 10.7913ZM14.4208 16.182L14.698 13.9813L13.2098 13.7938L12.9326 15.9945L14.4208 16.182ZM7.06736 15.9945L6.79017 13.7938L5.30193 13.9813L5.57911 16.182L7.06736 15.9945ZM17.6088 10.7138L17.5164 11.6025L19.0083 11.7576L19.1007 10.8689L17.6088 10.7138ZM17.5158 11.6085L17.0496 16.4667L18.5427 16.61L19.0089 11.7517L17.5158 11.6085ZM16.4735 12.4301H18.2624V10.9301H16.4735V12.4301ZM2.95037 16.4667L2.48416 11.6085L0.991021 11.7517L1.45723 16.61L2.95037 16.4667ZM2.48357 11.6025L2.39117 10.7138L0.899214 10.8689L0.991612 11.7576L2.48357 11.6025ZM3.52649 10.9301H1.73759L1.73759 12.4301H3.52649V10.9301ZM6.79017 13.7938C6.58356 12.1534 5.18063 10.9301 3.52649 10.9301V12.4301C4.43347 12.4301 5.19088 13.0995 5.30193 13.9813L6.79017 13.7938ZM4.26685 19.1501C5.95839 19.1501 7.27918 17.6763 7.06736 15.9945L5.57911 16.182C5.67652 16.9553 5.06839 17.6501 4.26685 17.6501V19.1501ZM14.698 13.9813C14.8091 13.0995 15.5665 12.4301 16.4735 12.4301V10.9301C14.8193 10.9301 13.4164 12.1534 13.2098 13.7938L14.698 13.9813ZM15.7331 17.6501C14.9316 17.6501 14.3234 16.9553 14.4208 16.182L12.9326 15.9945C12.7208 17.6763 14.0416 19.1501 15.7331 19.1501V17.6501ZM15.7331 19.1501C17.1834 19.1501 18.4041 18.0549 18.5427 16.61L17.0496 16.4667C16.9856 17.133 16.4197 17.6501 15.7331 17.6501V19.1501ZM9.99998 2.3501C14.541 2.3501 18.0732 6.24648 17.6088 10.7138L19.1007 10.8689C19.6584 5.50424 15.4183 0.850098 9.99998 0.850098V2.3501ZM9.99998 0.850098C4.58167 0.850098 0.34151 5.50424 0.899214 10.8689L2.39117 10.7138C1.92676 6.24648 5.459 2.3501 9.99998 2.3501V0.850098ZM4.26685 17.6501C3.58026 17.6501 3.01431 17.133 2.95037 16.4667L1.45723 16.61C1.59589 18.0549 2.81657 19.1501 4.26685 19.1501V17.6501Z" fill="#1333BB"/>
</svg>
