<svg width="16" height="22" viewBox="0 0 16 22" fill="none" xmlns="http://www.w3.org/2000/svg">
<path d="M7.99999 8.38172L7.44952 8.89112C7.59147 9.04452 7.79099 9.13172 7.99999 9.13172C8.20898 9.13172 8.4085 9.04452 8.55045 8.89112L7.99999 8.38172ZM7.99999 21.3499C8.4142 21.3499 8.74999 21.0141 8.74999 20.5999C8.74999 20.1857 8.4142 19.8499 7.99999 19.8499V21.3499ZM7.99999 11.1226C7.58577 11.1226 7.24999 11.4584 7.24999 11.8726C7.24999 12.2868 7.58577 12.6226 7.99999 12.6226V11.1226ZM9.94999 4.01808C9.94999 4.18626 9.85759 4.50249 9.61565 4.95829C9.38714 5.38879 9.07384 5.85545 8.74758 6.29538C8.42337 6.73253 8.09748 7.12846 7.85176 7.41592C7.72923 7.55926 7.62744 7.6747 7.5568 7.75374C7.5215 7.79323 7.49403 7.82358 7.47571 7.84371C7.46654 7.85378 7.45967 7.86128 7.45525 7.8661C7.45304 7.8685 7.45145 7.87023 7.45048 7.87128C7.45 7.8718 7.44968 7.87215 7.44952 7.87232C7.44944 7.87241 7.4494 7.87245 7.4494 7.87245L7.44943 7.87242C7.44947 7.87238 7.44952 7.87232 7.99999 8.38172C8.55045 8.89112 8.55052 8.89104 8.55061 8.89095C8.55065 8.89091 8.55074 8.89081 8.55082 8.89072C8.55099 8.89054 8.55119 8.89032 8.55144 8.89005C8.55193 8.88952 8.55259 8.88881 8.55341 8.88792C8.55504 8.88615 8.55732 8.88368 8.56021 8.88052C8.56601 8.8742 8.5743 8.86515 8.58491 8.85349C8.60614 8.83018 8.63668 8.79643 8.67521 8.75332C8.75222 8.66715 8.86137 8.54335 8.99197 8.39057C9.25249 8.08578 9.6016 7.66192 9.9524 7.18891C10.3011 6.71869 10.6628 6.1848 10.9406 5.66156C11.2049 5.16362 11.45 4.5729 11.45 4.01808H9.94999ZM7.99999 8.38172C8.55045 7.87232 8.5505 7.87238 8.55054 7.87242L8.55058 7.87245C8.55058 7.87245 8.55054 7.87241 8.55046 7.87232C8.55029 7.87215 8.54997 7.8718 8.54949 7.87128C8.54853 7.87023 8.54693 7.8685 8.54472 7.8661C8.5403 7.86128 8.53343 7.85378 8.52427 7.84371C8.50594 7.82358 8.47848 7.79323 8.44317 7.75374C8.37254 7.6747 8.27074 7.55926 8.14822 7.41592C7.90249 7.12846 7.5766 6.73253 7.2524 6.29538C6.92613 5.85545 6.61283 5.38879 6.38432 4.95829C6.14238 4.50249 6.04999 4.18626 6.04999 4.01808H4.54999C4.54999 4.5729 4.79509 5.16362 5.0594 5.66156C5.33714 6.1848 5.69884 6.71869 6.04758 7.18891C6.39837 7.66192 6.74748 8.08578 7.00801 8.39057C7.13861 8.54335 7.24775 8.66715 7.32477 8.75332C7.3633 8.79643 7.39384 8.83018 7.41506 8.85349C7.42567 8.86515 7.43396 8.8742 7.43976 8.88052C7.44266 8.88368 7.44494 8.88615 7.44657 8.88792C7.44739 8.88881 7.44804 8.88952 7.44854 8.89005C7.44878 8.89032 7.44899 8.89054 7.44915 8.89072C7.44924 8.89081 7.44933 8.89091 7.44937 8.89095C7.44945 8.89104 7.44952 8.89112 7.99999 8.38172ZM6.04999 4.01808C6.04999 3.0079 6.90111 2.1499 7.99999 2.1499V0.649902C6.11653 0.649902 4.54999 2.1363 4.54999 4.01808H6.04999ZM7.99999 2.1499C9.09887 2.1499 9.94999 3.0079 9.94999 4.01808H11.45C11.45 2.1363 9.88345 0.649902 7.99999 0.649902V2.1499ZM3.04999 16.9863H12.95V15.4863L3.04999 15.4863V16.9863ZM3.04999 21.3499H7.99999V19.8499H3.04999V21.3499ZM12.95 11.1226L7.99999 11.1226V12.6226L12.95 12.6226V11.1226ZM12.95 12.6226C13.8003 12.6226 14.45 13.2853 14.45 14.0544H15.95C15.95 12.4137 14.5849 11.1226 12.95 11.1226V12.6226ZM12.95 16.9863C14.5849 16.9863 15.95 15.6952 15.95 14.0544H14.45C14.45 14.8236 13.8003 15.4863 12.95 15.4863V16.9863ZM3.04999 15.4863C1.41506 15.4863 0.0499878 16.7773 0.0499878 18.4181H1.54999C1.54999 17.6489 2.19964 16.9863 3.04999 16.9863V15.4863ZM3.04999 19.8499C2.19964 19.8499 1.54999 19.1873 1.54999 18.4181H0.0499878C0.0499878 20.0589 1.41506 21.3499 3.04999 21.3499V19.8499Z" fill="#1333BB"/>
</svg>
