<svg width="14" height="34" viewBox="0 0 14 34" fill="none" xmlns="http://www.w3.org/2000/svg">
<path fill-rule="evenodd" clip-rule="evenodd" d="M2.41873 1.75C1.94334 1.75 1.55118 2.32997 1.85337 2.85304L4.59947 7.60632H9.40031L12.1464 2.85304C12.4486 2.32997 12.0564 1.75 11.5811 1.75H2.41873ZM9.17929 9.10632H4.82049L2.19493 28.1938C2.15719 28.4683 2.26853 28.7318 2.46523 28.885L6.61078 32.1141L6.1499 32.7057L6.61078 32.1141C6.84348 32.2953 7.1563 32.2953 7.389 32.1141L7.84988 32.7057L7.389 32.1141L11.5346 28.885C11.7313 28.7318 11.8426 28.4683 11.8048 28.1938L9.17929 9.10632ZM3.38855 8.50886L0.554548 3.60341C-0.276338 2.16521 0.691806 0.25 2.41873 0.25H11.5811C13.308 0.25 14.2761 2.16521 13.4452 3.60341L10.6112 8.50885L13.2909 27.9894C13.3994 28.7786 13.0872 29.577 12.4563 30.0684L8.31075 33.2974C7.53606 33.9009 6.46372 33.9009 5.68903 33.2974L1.54348 30.0684L1.99865 29.484L1.54347 30.0684C0.912542 29.577 0.600368 28.7786 0.708926 27.9894L3.38855 8.50886Z" fill="#1333BB"/>
</svg>
