<svg width="12" height="18" viewBox="0 0 12 18" fill="none" xmlns="http://www.w3.org/2000/svg">
<path d="M6.04015 0C2.89615 0 0.280151 1.704 0.280151 5.376H1.84015C1.84015 3.264 3.01615 1.32 5.92015 1.32C8.15215 1.32 9.73615 2.304 9.73615 4.2C9.73615 6 8.51215 7.2 7.31215 8.016C5.48815 9.336 4.36015 10.176 4.36015 12.528V13.608H5.87215V12.528C5.87215 10.728 6.71215 10.128 8.15215 9.12C9.68815 8.088 11.2962 6.408 11.2962 4.152C11.2962 1.344 8.82415 0 6.04015 0ZM6.18415 17.712V15.456H4.09615L4.09615 17.712H6.18415Z" fill="#1333BB"/>
</svg>