<svg width="24" height="24" viewBox="0 0 24 24" fill="none" xmlns="http://www.w3.org/2000/svg">
<path d="M12.0413 3C8.89725 3 6.28125 4.704 6.28125 8.376H7.84125C7.84125 6.264 9.01725 4.32 11.9213 4.32C14.1533 4.32 15.7373 5.304 15.7373 7.2C15.7373 9 14.5133 10.2 13.3133 11.016C11.4893 12.336 10.3613 13.176 10.3613 15.528V16.608H11.8733V15.528C11.8733 13.728 12.7133 13.128 14.1533 12.12C15.6893 11.088 17.2973 9.408 17.2973 7.152C17.2973 4.344 14.8253 3 12.0413 3ZM12.1853 20.712V18.456H10.0973L10.0973 20.712H12.1853Z" fill="#1333BB"/>
</svg>
