<svg width="26" height="26" viewBox="0 0 26 26" fill="none" xmlns="http://www.w3.org/2000/svg">
<path fill-rule="evenodd" clip-rule="evenodd" d="M0.25 3.4C0.25 1.6603 1.6603 0.25 3.4 0.25L17.8 0.25C19.5397 0.25 20.95 1.6603 20.95 3.4V5.05L22.6 5.05C24.3397 5.05 25.75 6.4603 25.75 8.2V9.4C25.75 9.81421 25.4142 10.15 25 10.15C24.5858 10.15 24.25 9.81421 24.25 9.4V8.2C24.25 7.28873 23.5113 6.55 22.6 6.55L20.95 6.55V17.8C20.95 19.5397 19.5397 20.95 17.8 20.95H6.55L6.55 22.6C6.55 23.5113 7.28873 24.25 8.2 24.25H9.4C9.81421 24.25 10.15 24.5858 10.15 25C10.15 25.4142 9.81421 25.75 9.4 25.75H8.2C6.4603 25.75 5.05 24.3397 5.05 22.6L5.05 20.95H3.4C1.6603 20.95 0.25 19.5397 0.25 17.8L0.25 3.4ZM3.4 1.75C2.48873 1.75 1.75 2.48873 1.75 3.4L1.75 17.8C1.75 18.7113 2.48873 19.45 3.4 19.45H17.8C18.7113 19.45 19.45 18.7113 19.45 17.8V3.4C19.45 2.48873 18.7113 1.75 17.8 1.75L3.4 1.75ZM5.05 9.4C5.05 8.98579 5.38579 8.65 5.8 8.65L10.6 8.65C11.0142 8.65 11.35 8.98579 11.35 9.4C11.35 9.81421 11.0142 10.15 10.6 10.15L5.8 10.15C5.38579 10.15 5.05 9.81421 5.05 9.4ZM5.05 14.2C5.05 13.7858 5.38579 13.45 5.8 13.45L15.4 13.45C15.8142 13.45 16.15 13.7858 16.15 14.2C16.15 14.6142 15.8142 14.95 15.4 14.95L5.8 14.95C5.38579 14.95 5.05 14.6142 5.05 14.2ZM25 13.45C25.4142 13.45 25.75 13.7858 25.75 14.2V16.6C25.75 17.0142 25.4142 17.35 25 17.35C24.5858 17.35 24.25 17.0142 24.25 16.6V14.2C24.25 13.7858 24.5858 13.45 25 13.45ZM25 20.65C25.4142 20.65 25.75 20.9858 25.75 21.4V22.6C25.75 24.3397 24.3397 25.75 22.6 25.75H21.4C20.9858 25.75 20.65 25.4142 20.65 25C20.65 24.5858 20.9858 24.25 21.4 24.25H22.6C23.5113 24.25 24.25 23.5113 24.25 22.6V21.4C24.25 20.9858 24.5858 20.65 25 20.65ZM13.45 25C13.45 24.5858 13.7858 24.25 14.2 24.25H16.6C17.0142 24.25 17.35 24.5858 17.35 25C17.35 25.4142 17.0142 25.75 16.6 25.75H14.2C13.7858 25.75 13.45 25.4142 13.45 25Z" fill="#1333BB"/>
</svg>
