<svg width="553" height="120" viewBox="0 0 553 120" fill="none" xmlns="http://www.w3.org/2000/svg">
  <path fill-rule="evenodd" clip-rule="evenodd" d="M2.97879 28.9272C0.00218031 28.9272 -0.371834 27.4338 0.26193 25.1456C3.8827 14.651 16.5424 0 31.8047 0H85.6954C90.0694 0 91.9862 0.440458 91.1914 5.49285L84.8123 45.264C80.2149 64.694 55.1968 74.8595 49.0929 74.7785C47.3734 74.7532 46.1527 73.4015 46.4384 71.7157L53.1396 28.9272H2.97359H2.97879Z" fill="#1333BB"/>
  <path fill-rule="evenodd" clip-rule="evenodd" d="M101.554 0H146.296C149.763 0 149.95 1.34502 149.198 3.8025C145.653 15.0179 132.901 28.8931 117.648 28.8931H96.6285C94.4695 28.8931 93.1513 28.2003 93.5042 25.9805L96.971 3.85309C97.516 0.429804 99.1041 0 101.554 0Z" fill="#A61A1A"/>
  <path d="M550.322 24.6973C551.016 24.6973 551.942 24.7745 552.636 24.8516L549.385 34.6176C549.039 34.6199 548.662 34.6302 548.239 34.649C543.629 34.649 538.62 38.5723 538.52 43.3673V65.8765H528.875V24.6202L538.52 24.6973V30.5573C541.625 26.0489 545.132 25.047 550.322 24.6973Z" fill="#1333BB"/>
  <path fill-rule="evenodd" clip-rule="evenodd" d="M552.971 24.6373L549.566 34.8664L549.387 34.8676C549.044 34.8698 548.671 34.8801 548.25 34.8987L548.239 34.8992C546.001 34.8992 543.653 35.8532 541.851 37.3997C540.05 38.9453 538.819 41.0614 538.77 43.37V66.1265H528.625V24.3682L538.77 24.4493V29.7822C540.214 27.8639 541.764 26.6345 543.537 25.8396C545.492 24.9635 547.701 24.6233 550.305 24.4479L550.313 24.4473H550.322C551.03 24.4473 551.966 24.5256 552.664 24.6031L552.971 24.6373ZM538.77 30.2032C541.814 25.9958 545.271 25.0376 550.322 24.6973C550.934 24.6973 551.727 24.7573 552.382 24.8245C552.469 24.8334 552.554 24.8425 552.636 24.8516L549.385 34.6176C549.039 34.6199 548.662 34.6302 548.239 34.649C543.629 34.649 538.62 38.5723 538.52 43.3673V65.8765H528.875V24.6202L538.52 24.6973V30.5573C538.603 30.4368 538.686 30.3187 538.77 30.2032Z" fill="#1333BB"/>
  <path d="M511.525 49.597C511.525 55.47 507.07 59.1148 500.358 59.1148C495.498 59.1148 492.343 57.4497 492.343 54.4411C492.343 50.5989 500.358 48.5951 511.525 47.0923V49.597ZM511.525 62.6214C511.525 64.7845 511.525 65.8655 511.525 65.8655H520.861V51.6008C520.861 51.6008 520.861 42.5608 520.861 41.3265C520.861 27.3633 513.762 23.0432 503.965 23.0432C493.242 23.0432 486.607 29.0605 485.759 37.2378H495.71C495.85 33.066 499.275 31.0622 503.364 31.0622C507.684 31.0622 511.525 32.6743 511.525 39.0773V39.8486C495.17 41.7001 483.907 44.6437 483.907 54.4411C483.907 62.0013 490.927 66.6299 498.873 66.6299C505.122 66.6299 508.874 65.6271 511.525 62.6214Z" fill="#1333BB"/>
  <path fill-rule="evenodd" clip-rule="evenodd" d="M520.861 51.6008V65.8655H511.525V62.6214C511.443 62.7147 511.359 62.806 511.275 62.8955C508.639 65.6883 504.928 66.6299 498.873 66.6299C490.927 66.6299 483.907 62.0013 483.907 54.4411C483.907 44.6437 495.17 41.7001 511.525 39.8486V39.0773C511.525 32.6743 507.684 31.0622 503.364 31.0622C499.275 31.0622 495.85 33.066 495.71 37.2378H485.759C485.767 37.1543 485.777 37.0709 485.787 36.9878C486.743 28.9381 493.351 23.0432 503.965 23.0432C513.762 23.0432 520.861 27.3633 520.861 41.3265V51.6008ZM511.275 39.6254C503.195 40.5477 496.336 41.7474 491.48 43.9372C489.027 45.0436 487.07 46.4095 485.725 48.1344C484.378 49.8637 483.657 51.9396 483.657 54.4411C483.657 58.3072 485.455 61.4249 488.259 63.5691C491.057 65.7099 494.855 66.8799 498.873 66.8799C504.812 66.8799 508.578 65.9786 511.275 63.2551V66.1155H521.111V51.6008H520.861C521.111 51.6008 521.111 51.6008 521.111 51.6008V41.3265C521.111 34.3055 519.326 29.6564 516.258 26.7667C513.193 23.8796 508.895 22.7932 503.965 22.7932C498.557 22.7932 494.158 24.3111 491.001 26.8801C487.842 29.4502 485.941 33.0604 485.51 37.212L485.481 37.4878H495.952L495.96 37.2462C496.027 35.2356 496.882 33.7632 498.204 32.7867C499.535 31.8045 501.357 31.3122 503.364 31.3122C505.5 31.3122 507.472 31.7122 508.908 32.8637C510.333 34.0063 511.275 35.9276 511.275 39.0773V39.6254ZM508.297 56.3671C510.19 54.7727 511.275 52.4652 511.275 49.597V47.3784C505.815 48.121 501.145 48.9851 497.828 50.1258C496.139 50.7064 494.82 51.3525 493.927 52.0773C493.038 52.7992 492.593 53.5801 492.593 54.4411C492.593 55.8394 493.318 56.9323 494.651 57.6888C495.996 58.4516 497.951 58.8648 500.358 58.8648C503.671 58.8648 506.4 57.9654 508.297 56.3671ZM511.275 47.1261C500.239 48.6252 492.343 50.6276 492.343 54.4411C492.343 57.4497 495.498 59.1148 500.358 59.1148C507.07 59.1148 511.525 55.47 511.525 49.597V47.0923C511.442 47.1035 511.358 47.1148 511.275 47.1261Z" fill="#1333BB"/>
  <path d="M476.552 66.124V6.18665L465.906 10.1942V28.3003C463.369 26.0489 457.859 25.047 453.851 25.047C445.836 25.5479 435.896 32.3347 435.896 45.3721C435.896 58.641 446.741 66.124 453.851 66.124C458.171 66.124 462.367 65.6231 465.874 62.6175L465.906 66.124H476.552ZM456.356 56.1052C450.801 56.1052 445.836 51.5968 445.836 45.3721C445.836 37.2719 451.847 34.0639 456.356 34.0639C462.219 34.0639 466.875 38.8074 466.875 45.3721C466.875 53.0996 460.363 56.1052 456.356 56.1052Z" fill="#1333BB"/>
  <path d="M411.032 23.3401C404.709 23.3401 399.593 25.4113 395.699 29.5613C391.798 33.7114 389.847 38.8818 389.847 45.0877C389.847 51.3472 391.798 56.5405 395.699 60.6522C399.6 64.7716 404.709 66.8274 411.032 66.8274C417.355 66.8274 422.463 64.7716 426.364 60.6522C430.266 56.5328 432.216 51.3472 432.216 45.0877C432.216 38.8818 430.266 33.7037 426.364 29.5613C422.463 25.4113 417.355 23.3401 411.032 23.3401ZM418.577 52.866C416.604 54.9833 414.087 56.0342 411.032 56.0342C407.925 56.0342 405.393 54.991 403.443 52.9044C401.492 50.8179 400.52 48.2098 400.52 45.08C400.52 41.9502 401.492 39.3267 403.443 37.2171C405.393 35.1076 407.918 34.049 411.032 34.049C414.138 34.049 416.67 35.1076 418.621 37.2171C420.571 39.3343 421.543 41.9502 421.543 45.08C421.543 48.1561 420.557 50.7565 418.577 52.866Z" fill="#1333BB"/>
  <path d="M359.016 25.622H348.37V66.124H359.016V45.5253C359.016 38.9681 360.558 33.2593 367.579 33.2593C373.596 33.2593 374.753 37.9652 374.753 43.2881V66.124H385.399V40.9738C385.399 30.7136 381.002 24.6963 371.05 24.6963C365.881 24.6963 361.407 26.8563 359.016 31.0993V25.622Z" fill="#1333BB"/>
  <path fill-rule="evenodd" clip-rule="evenodd" d="M359.266 25.372V30.2112C361.799 26.381 366.129 24.4463 371.05 24.4463C376.078 24.4463 379.745 25.9686 382.148 28.8266C384.544 31.6765 385.649 35.8137 385.649 40.9738V66.374H374.503V43.2881C374.503 40.6341 374.212 38.1829 373.205 36.4007C372.704 35.515 372.027 34.7962 371.118 34.2969C370.208 33.7969 369.05 33.5093 367.579 33.5093C365.858 33.5093 364.489 33.859 363.402 34.4716C362.315 35.0838 361.495 35.9666 360.882 37.0559C359.652 39.2443 359.266 42.2564 359.266 45.5253V66.374H348.12V25.372H359.266ZM359.266 30.6755C359.18 30.8144 359.097 30.9556 359.016 31.0993V25.622H348.37V66.124H359.016V45.5253C359.016 38.9681 360.558 33.2593 367.579 33.2593C373.596 33.2593 374.753 37.9652 374.753 43.2881V66.124H385.399V40.9738C385.399 30.7136 381.002 24.6963 371.05 24.6963C366.056 24.6963 361.711 26.7126 359.266 30.6755Z" fill="#1333BB"/>
  <path d="M313.213 5.66388L302.567 10.0188V65.9487H313.213V45.3501C313.213 38.7928 314.756 33.0841 321.776 33.0841C327.794 33.0841 328.951 37.7899 328.951 43.1129V65.9487H339.597V40.7986C339.597 30.5383 335.2 24.521 325.248 24.521C320.079 24.521 315.605 26.6811 313.213 30.924V5.66388Z" fill="#1333BB"/>
  <path fill-rule="evenodd" clip-rule="evenodd" d="M313.463 5.2915V30.036C315.997 26.2057 320.327 24.271 325.248 24.271C330.276 24.271 333.942 25.7933 336.346 28.6513C338.742 31.5012 339.847 35.6384 339.847 40.7986V66.1987H328.701V43.1129C328.701 40.4588 328.41 38.0076 327.402 36.2254C326.902 35.3398 326.225 34.6209 325.316 34.1217C324.405 33.6217 323.248 33.3341 321.776 33.3341C320.056 33.3341 318.687 33.6837 317.599 34.2963C316.513 34.9085 315.693 35.7914 315.08 36.8806C313.85 39.069 313.463 42.0811 313.463 45.3501V66.1987H302.317V9.85099L313.463 5.2915ZM313.463 30.5003C313.378 30.6391 313.294 30.7804 313.213 30.924V5.66388L302.567 10.0188V65.9487H313.213V45.3501C313.213 38.7928 314.756 33.0841 321.776 33.0841C327.794 33.0841 328.951 37.7899 328.951 43.1129V65.9487H339.597V40.7986C339.597 30.5383 335.2 24.521 325.248 24.521C320.254 24.521 315.909 26.5373 313.463 30.5003Z" fill="#1333BB"/>
  <path d="M278.391 23.6945C265.971 23.6945 257.562 32.7975 257.562 45.4492C257.562 58.0238 265.508 67.1269 277.928 67.1269C286.568 67.1269 295.59 62.4361 298.059 51.0958H287.038C286.036 54.1015 281.631 57.1071 277.928 57.1071C274.422 57.1071 268.002 54.1666 268.002 45.4492C268.002 37.4342 274.014 34.0639 278.391 34.0639C282.48 34.0639 285.034 36.0677 287.038 39.0733L297.214 38.8148C295.749 28.5546 287.108 23.6945 278.391 23.6945Z" fill="#1333BB"/>
  <path d="M240.304 54.3542C239.73 54.8912 239.039 55.3591 238.23 55.758C236.626 56.5558 234.898 56.9011 233.059 56.786C230.425 56.6786 228.255 55.8654 226.542 54.3542C224.828 52.843 223.82 50.9943 223.504 48.7927H253.199C253.934 41.4899 252.412 35.4221 248.616 30.5893C244.828 25.7565 239.664 23.3401 233.132 23.3401C227.182 23.3401 222.275 25.4266 218.399 29.5997C214.53 33.7728 212.595 38.9354 212.595 45.0876C212.595 51.1861 214.412 56.3334 218.046 60.5295C221.679 64.7332 226.681 66.8274 233.051 66.8274C237.788 66.8274 241.952 65.577 245.534 63.0839C247.491 61.7185 249.102 60.0538 250.367 58.0824C250.381 58.0594 250.396 58.0287 250.411 57.998L240.356 54.2852C240.341 54.3159 240.319 54.3389 240.304 54.3542ZM227.012 35.1612C228.719 33.9262 230.734 33.3049 233.051 33.3049C235.368 33.3049 237.354 33.9109 239.017 35.1152C240.679 36.3273 241.797 37.9995 242.371 40.1397H223.57C224.151 38.0609 225.298 36.3963 227.012 35.1612Z" fill="#1333BB"/>
  <path d="M173.172 10.4199V21.7891H190.429V65.6457H201.72V21.7891H214.247L218.109 10.4199H173.172Z" fill="#1333BB"/>
  <path d="M200.312 89.8145C193.17 89.8145 188.806 94.7076 188.806 102.147C188.806 109.685 192.906 114.644 199.717 114.644C203.023 114.644 205.635 113.454 207.056 111.338L207.189 114.214H210.495V101.684H200.477V105.221H206.594V105.684C206.594 109.949 203.023 111.206 200.179 111.206C195.948 111.206 193.137 107.965 193.137 102.147C193.137 96.2615 196.113 93.2529 200.213 93.2529C203.386 93.2529 205.635 94.906 206.428 97.8485H210.429C209.404 92.7239 205.701 89.8145 200.312 89.8145Z" fill="#1333BB"/>
  <path d="M224.205 96.4599C223.907 96.4269 223.477 96.3938 223.18 96.3938C221.031 96.4269 219.312 97.6171 218.353 99.6008V96.4269H214.484V114.214H218.419V104.891C218.419 101.32 219.841 100.328 222.32 100.328C222.915 100.328 223.543 100.361 224.205 100.427V96.4599Z" fill="#1333BB"/>
  <path d="M228.847 105.354C228.847 101.254 231.029 99.2371 233.542 99.2371C236.055 99.2371 238.237 101.254 238.237 105.354C238.237 109.453 236.055 111.437 233.542 111.437C231.029 111.437 228.847 109.453 228.847 105.354ZM233.542 96.0301C229.211 96.0301 224.781 98.9396 224.781 105.354C224.781 111.801 229.211 114.644 233.542 114.644C237.873 114.644 242.304 111.801 242.304 105.354C242.304 98.9396 237.873 96.0301 233.542 96.0301Z" fill="#1333BB"/>
  <path d="M256.183 114.214H260.117V96.4269H256.183V105.916C256.183 109.123 255.125 111.437 252.182 111.437C249.24 111.437 248.909 109.09 248.909 106.676V96.4269H244.975V107.635C244.975 111.867 246.694 114.644 250.926 114.644C253.34 114.644 255.158 113.619 256.183 111.768V114.214Z" fill="#1333BB"/>
  <path d="M267.985 105.321C267.985 101.221 270.002 99.2371 272.58 99.2371C275.358 99.2371 276.978 101.585 276.978 105.321C276.978 109.123 275.358 111.437 272.58 111.437C270.002 111.437 267.985 109.42 267.985 105.321ZM264.216 96.4269V120H268.15V111.867C269.208 113.619 271.059 114.644 273.44 114.644C277.804 114.644 281.077 111.04 281.077 105.321C281.077 99.6339 277.804 96.0301 273.44 96.0301C271.059 96.0301 269.208 97.055 268.15 98.8073V96.4269H264.216Z" fill="#1333BB"/>
  <path d="M294.133 105.354C294.133 101.254 296.315 99.2371 298.828 99.2371C301.341 99.2371 303.523 101.254 303.523 105.354C303.523 109.453 301.341 111.437 298.828 111.437C296.315 111.437 294.133 109.453 294.133 105.354ZM298.828 96.0301C294.497 96.0301 290.067 98.9396 290.067 105.354C290.067 111.801 294.497 114.644 298.828 114.644C303.159 114.644 307.589 111.801 307.589 105.354C307.589 98.9396 303.159 96.0301 298.828 96.0301Z" fill="#1333BB"/>
  <path d="M311.183 96.4269H308.703V99.2702H311.183V114.214H315.117V99.2702H318.622V96.4269H315.117V95.4681C315.117 93.6166 315.547 93.2529 317.497 93.2529H318.622V90.2443H317.068C312.736 90.2443 311.183 91.2031 311.183 95.3358V96.4269Z" fill="#1333BB"/>
  <path d="M335.804 96.0301C330.481 96.0301 327.076 100.064 327.076 105.354C327.076 110.644 330.481 114.644 335.639 114.644C339.441 114.644 343.111 112.297 343.904 108.131H340.069C339.54 110.511 337.656 111.371 335.705 111.371C333.391 111.371 331.142 109.552 331.142 105.321C331.142 101.122 333.325 99.3032 335.804 99.3032C337.953 99.3032 339.573 100.626 339.937 102.51H343.772C343.078 98.5759 339.705 96.0301 335.804 96.0301Z" fill="#1333BB"/>
  <path d="M349.571 105.354C349.571 101.254 351.753 99.2371 354.266 99.2371C356.779 99.2371 358.961 101.254 358.961 105.354C358.961 109.453 356.779 111.437 354.266 111.437C351.753 111.437 349.571 109.453 349.571 105.354ZM354.266 96.0301C349.935 96.0301 345.505 98.9396 345.505 105.354C345.505 111.801 349.935 114.644 354.266 114.644C358.597 114.644 363.028 111.801 363.028 105.354C363.028 98.9396 358.597 96.0301 354.266 96.0301Z" fill="#1333BB"/>
  <path d="M369.865 104.758C369.865 101.551 370.857 99.2371 373.766 99.2371C376.676 99.2371 376.907 101.585 376.907 103.998V114.214H380.841V104.758C380.841 101.551 381.833 99.2371 384.743 99.2371C387.652 99.2371 387.884 101.585 387.884 103.998V114.214H391.818V103.039C391.818 98.8073 390.231 96.0301 385.999 96.0301C383.784 96.0301 381.767 96.9228 380.213 99.171C379.387 97.1873 377.8 96.0301 375.022 96.0301C372.642 96.0301 370.89 97.055 369.865 98.9065V96.4269H365.93V114.214H369.865V104.758Z" fill="#1333BB"/>
  <path d="M399.364 105.321C399.364 101.221 401.38 99.2371 403.959 99.2371C406.736 99.2371 408.356 101.585 408.356 105.321C408.356 109.123 406.736 111.437 403.959 111.437C401.38 111.437 399.364 109.42 399.364 105.321ZM395.594 96.4269V120H399.529V111.867C400.587 113.619 402.438 114.644 404.819 114.644C409.183 114.644 412.456 111.04 412.456 105.321C412.456 99.6339 409.183 96.0301 404.819 96.0301C402.438 96.0301 400.587 97.055 399.529 98.8073V96.4269H395.594Z" fill="#1333BB"/>
  <path d="M426.195 107.205C426.195 110.247 424.475 111.701 421.566 111.701C419.582 111.701 418.293 110.776 418.293 109.222C418.293 107.205 420.574 106.379 426.195 105.85V107.205ZM420.706 114.644C423.351 114.644 425.401 113.751 426.558 111.801C426.658 113.024 426.757 113.454 426.889 114.214H430.493C430.129 112.726 429.964 110.379 429.964 108.131C429.964 106.511 430.03 104.395 430.03 103.535C430.129 97.8485 426.79 95.8979 422.525 95.8979C418.227 95.8979 415.218 98.4106 414.954 102.014H418.822C418.921 99.8653 420.409 98.8073 422.393 98.8073C424.376 98.8073 426.095 99.7331 426.095 102.775V103.105C419.615 103.8 414.127 104.858 414.127 109.321C414.127 112.561 416.838 114.644 420.706 114.644Z" fill="#1333BB"/>
  <path d="M437.612 96.4269H433.678V114.214H437.612V104.758C437.612 101.551 438.703 99.2371 441.745 99.2371C444.787 99.2371 445.117 101.585 445.117 103.998V114.214H449.052V103.039C449.052 98.8073 447.299 96.0301 443.001 96.0301C440.489 96.0301 438.637 97.055 437.612 98.9065V96.4269Z" fill="#1333BB"/>
  <path d="M452.816 90.2443V94.2117H456.751V90.2443H452.816ZM452.816 96.4269V114.214H456.751V96.4269H452.816Z" fill="#1333BB"/>
  <path d="M476.916 106.445C477.28 100.493 473.841 96.0301 468.386 96.0301C463.328 96.0301 459.658 99.8322 459.658 105.188C459.658 110.313 462.931 114.644 468.651 114.644C473.213 114.644 475.924 111.735 476.718 108.891H472.85C472.155 110.577 470.568 111.371 468.485 111.371C466.237 111.371 463.923 109.751 463.658 106.445H476.916ZM468.386 99.1049C470.7 99.1049 472.816 100.791 472.916 103.568H463.658C464.022 100.229 466.535 99.1049 468.386 99.1049Z" fill="#1333BB"/>
  <path d="M493.743 101.287C493.015 97.7163 489.841 96.0301 486.37 96.0301C482.535 96.0301 479.129 98.0469 479.129 101.188C479.129 104.461 481.477 105.75 484.485 106.379L487.163 106.908C488.916 107.271 490.238 107.899 490.238 109.354C490.238 110.809 488.75 111.668 486.667 111.668C484.32 111.668 483.031 110.644 482.667 108.792H478.832C479.261 112.131 482.171 114.644 486.535 114.644C490.569 114.644 494.073 112.594 494.073 108.891C494.073 105.42 491.329 104.296 487.725 103.601L485.213 103.105C483.659 102.808 482.832 102.18 482.832 100.989C482.832 99.7992 484.419 99.0387 486.138 99.0387C488.122 99.0387 489.61 99.6669 490.04 101.287H493.743Z" fill="#1333BB"/>
</svg>
