<svg width="177" height="40" viewBox="0 0 177 40" fill="none" xmlns="http://www.w3.org/2000/svg">
  <path fill-rule="evenodd" clip-rule="evenodd" d="M0.991061 9.62426C0.000725402 9.62426 -0.123711 9.12738 0.0871455 8.36607C1.29179 4.87445 5.50374 0 10.5816 0H28.5113C29.9666 0 30.6043 0.146543 30.3399 1.8275L28.2175 15.0596C26.6879 21.524 18.3643 24.9062 16.3335 24.8792C15.7614 24.8708 15.3552 24.4211 15.4503 23.8602L17.6798 9.62426H0.989331H0.991061Z" fill="#1333BB"/>
  <path fill-rule="evenodd" clip-rule="evenodd" d="M33.7874 0H48.6735C49.827 0 49.8891 0.447495 49.6387 1.26511C48.4594 4.99654 44.2168 9.61288 39.142 9.61288H32.1488C31.4304 9.61288 30.9919 9.3824 31.1093 8.64385L32.2627 1.28194C32.444 0.142998 32.9724 0 33.7874 0Z" fill="#A61A1A"/>
  <path d="M98.3592 8.18457H94.1798L91.5542 12.2428L88.8479 8.18457H84.3014L89.188 14.9857L84.25 21.8405H88.7157L91.3707 17.8104L94.1015 21.8405H98.648L93.7075 14.9014L98.3592 8.18457Z" fill="#1333BB"/>
  <path d="M109.098 13.1469H103.553V8.18457H100.005V21.8405H103.553V16.6586H109.098V21.8405H112.644V8.18457H109.098V13.1469Z" fill="#1333BB"/>
  <path d="M143.226 8.18457H131.823C131.823 12.1878 131.779 14.8455 131.69 16.1629C131.584 17.7495 130.918 18.356 129.354 18.356V24.9072H132.743V21.8359H142.071V24.9072H145.46V18.356H143.226V8.18457ZM139.68 18.3535H134.74C134.916 17.7152 135.028 16.8829 135.082 15.8591C135.116 15.1468 135.153 13.758 135.187 11.6925H139.68V18.3535Z" fill="#1333BB"/>
  <path d="M156.59 9.93376H156.458C156.038 9.29212 155.461 8.7706 154.725 8.36926C153.989 7.96792 153.168 7.76597 152.259 7.76597C150.42 7.74808 148.92 8.42552 147.758 9.79826C146.595 11.171 146.013 12.9195 146.013 15.0413C146.013 17.1656 146.605 18.8988 147.785 20.2434C148.966 21.588 150.45 22.2603 152.234 22.2603C153.161 22.2424 153.992 22.0303 154.727 21.6289C155.463 21.2276 156.04 20.6958 156.46 20.0363H156.592V21.8488H160.11V8.18009H156.592V9.93376H156.59ZM155.62 17.6615C154.972 18.3849 154.131 18.7454 153.099 18.7454C152.068 18.7454 151.222 18.3926 150.567 17.6896C149.912 16.9841 149.582 16.0919 149.582 15.0132C149.582 13.9344 149.91 13.0422 150.567 12.3367C151.222 11.6311 152.068 11.2809 153.099 11.2809C154.114 11.2809 154.95 11.6388 155.605 12.352C156.26 13.0652 156.59 13.9548 156.59 15.0157C156.59 16.0536 156.267 16.9381 155.62 17.6615Z" fill="#1333BB"/>
  <path d="M175.122 9.79509C173.959 8.42449 172.458 7.7481 170.622 7.76597C169.73 7.76597 168.911 7.96763 168.168 8.36835C167.425 8.77161 166.843 9.29229 166.422 9.93037H166.29V8.17692H162.773V27.8171L166.29 26.5409V20.0171H166.422C166.843 20.6756 167.42 21.204 168.156 21.6073C168.891 22.008 169.722 22.2198 170.649 22.2377C172.433 22.2377 173.917 21.5664 175.098 20.2239C176.278 18.8814 176.87 17.1509 176.87 15.0299C176.867 12.9115 176.286 11.1657 175.122 9.79509ZM172.313 17.6741C171.658 18.3786 170.813 18.7282 169.781 18.7282C168.75 18.7282 167.909 18.3684 167.261 17.646C166.613 16.9237 166.29 16.0432 166.29 15.0018C166.29 13.9426 166.618 13.057 167.276 12.3423C167.931 11.6302 168.767 11.2729 169.781 11.2729C170.813 11.2729 171.658 11.6251 172.313 12.327C172.969 13.0314 173.299 13.9222 173.299 14.9993C173.299 16.0815 172.971 16.9722 172.313 17.6741Z" fill="#1333BB"/>
  <path d="M79.9508 18.0842C79.7599 18.2629 79.5299 18.4185 79.2607 18.5512C78.7272 18.8167 78.1521 18.9316 77.5403 18.8933C76.6641 18.8575 75.9422 18.587 75.372 18.0842C74.8018 17.5814 74.4665 16.9663 74.3612 16.2339H84.2409C84.4856 13.8042 83.9791 11.7854 82.7163 10.1775C81.4559 8.56959 79.7379 7.76562 77.5647 7.76562C75.5849 7.76562 73.9526 8.45983 72.6628 9.84823C71.3756 11.2366 70.7319 12.9543 70.7319 15.0012C70.7319 17.0302 71.3364 18.7427 72.5453 20.1387C73.7543 21.5374 75.4185 22.2341 77.5378 22.2341C79.1139 22.2341 80.499 21.8181 81.6908 20.9886C82.3418 20.5343 82.8778 19.9805 83.2987 19.3246C83.3036 19.3169 83.3085 19.3067 83.3134 19.2965L79.968 18.0612C79.9631 18.0715 79.9557 18.0791 79.9508 18.0842ZM75.5286 11.6986C76.0964 11.2877 76.7669 11.081 77.5378 11.081C78.3087 11.081 78.9695 11.2826 79.5226 11.6833C80.0756 12.0865 80.4476 12.6429 80.6385 13.355H74.3833C74.5766 12.6633 74.9584 12.1095 75.5286 11.6986Z" fill="#1333BB"/>
  <path d="M57.6152 3.4668V7.24938H63.3567V21.8407H67.1133V7.24938H71.2811L72.566 3.4668H57.6152Z" fill="#1333BB"/>
  <path d="M121.753 7.76562C119.649 7.76562 117.947 8.45472 116.652 9.83546C115.354 11.2162 114.705 12.9364 114.705 15.0012C114.705 17.0838 115.354 18.8116 116.652 20.1796C117.95 21.5501 119.649 22.2341 121.753 22.2341C123.857 22.2341 125.556 21.5501 126.854 20.1796C128.152 18.809 128.801 17.0838 128.801 15.0012C128.801 12.9364 128.152 11.2137 126.854 9.83546C125.556 8.45472 123.857 7.76562 121.753 7.76562ZM124.263 17.5891C123.607 18.2935 122.769 18.6431 121.753 18.6431C120.719 18.6431 119.877 18.296 119.228 17.6018C118.579 16.9076 118.256 16.0399 118.256 14.9986C118.256 13.9573 118.579 13.0844 119.228 12.3826C119.877 11.6807 120.717 11.3285 121.753 11.3285C122.786 11.3285 123.629 11.6807 124.278 12.3826C124.927 13.087 125.25 13.9573 125.25 14.9986C125.25 16.022 124.922 16.8872 124.263 17.5891Z" fill="#1333BB"/>
  <path d="M63.2695 38.0209V29.8208H68.7563V31.1324H64.8131V38.0209H63.2695Z" fill="#1333BB"/>
  <path d="M68.4521 39.9997V31.9349H69.9432V32.7146C70.2563 32.1367 70.8825 31.7974 71.6181 31.7974C73.0216 31.7974 74.1448 33.0654 74.1448 34.9756C74.1448 36.9201 72.9887 38.1653 71.6072 38.1653C71.0029 38.1653 70.3219 37.9268 69.9432 37.248V39.9974H68.4521V39.9997ZM72.5771 34.9893C72.5771 33.8015 72.0253 32.9989 71.2481 32.9989C70.427 32.9989 69.8862 33.758 69.8862 34.9779C69.8862 36.2322 70.427 36.9683 71.2481 36.9683C72.0253 36.9683 72.5771 36.1772 72.5771 34.9893Z" fill="#1333BB"/>
  <path d="M74.8364 39.9999V38.8006H75.3991C75.8961 38.8006 76.1129 38.812 76.3712 38.1677L76.4369 37.998L74.2124 31.9351H75.8436L77.1616 36.324L78.5126 31.9351H80.0255L77.8973 37.8398C77.2054 39.7293 76.9142 39.9999 75.467 39.9999H74.8364Z" fill="#1333BB"/>
  <path d="M80.6953 38.0209V31.9351H85.8909V38.0209H84.3999V33.1687H82.1864V38.0209H80.6953Z" fill="#1333BB"/>
  <path d="M87.2334 38.0209V31.9351H92.429V38.0209H90.938V33.1687H88.7244V38.0209H87.2334Z" fill="#1333BB"/>
  <path d="M95.5358 38.1677C94.4235 38.1677 93.4404 37.489 93.4404 36.3814C93.4404 34.9459 94.9753 34.5148 97.2633 34.2442V34.1433C97.2633 33.2055 96.7772 32.8753 96.1729 32.8753C95.5993 32.8753 95.1242 33.1802 95.0935 33.859H93.701C93.8192 32.6597 94.7498 31.7769 96.2496 31.7769C97.6202 31.7769 98.7543 32.4098 98.7543 34.4575C98.7543 34.6386 98.7324 35.4642 98.7324 36.0076C98.7324 36.9684 98.7872 37.5119 98.9054 38.0209H97.5348C97.491 37.8283 97.4691 37.5692 97.4384 37.2619C97.0159 37.8971 96.4116 38.1677 95.5358 38.1677ZM97.3071 35.2372C95.6321 35.4183 94.9731 35.6224 94.9731 36.3011C94.9731 36.7414 95.2971 37.1037 95.9781 37.1037C96.9174 37.1037 97.3071 36.5832 97.3071 35.6889V35.2372Z" fill="#1333BB"/>
  <path d="M102.514 38.0209V31.9351H104.016V34.8886H104.027L106.067 31.9351H107.753L105.561 34.9321L107.852 38.0209H106.135L104.029 35.0353H104.018V38.0209H102.514Z" fill="#1333BB"/>
  <path d="M107.869 34.9895C107.869 32.8523 109.316 31.7998 110.786 31.7998C112.255 31.7998 113.702 32.8523 113.702 34.9895C113.702 37.1152 112.255 38.1677 110.786 38.1677C109.316 38.1677 107.869 37.1152 107.869 34.9895ZM109.38 34.9895C109.38 36.2668 109.962 36.9455 110.783 36.9455C111.604 36.9455 112.187 36.2668 112.187 34.9895C112.187 33.7122 111.604 33.022 110.783 33.022C109.962 33.022 109.38 33.71 109.38 34.9895Z" fill="#1333BB"/>
  <path d="M114.648 38.0209V31.9351H116.84L118.169 36.3011L119.487 31.9351H121.678V38.0209H120.253V33.2031L118.688 38.0209H117.641L116.075 33.2031V38.0209H114.648Z" fill="#1333BB"/>
  <path d="M123.033 38.0209V31.9351H128.229V38.0209H126.738V33.1687H124.524V38.0209H123.033Z" fill="#1333BB"/>
  <path d="M131.336 38.1677C130.224 38.1677 129.241 37.489 129.241 36.3814C129.241 34.9459 130.776 34.5148 133.063 34.2442V34.1433C133.063 33.2055 132.577 32.8753 131.973 32.8753C131.402 32.8753 130.924 33.1802 130.894 33.859H129.501C129.62 32.6597 130.55 31.7769 132.05 31.7769C133.42 31.7769 134.554 32.4098 134.554 34.4575C134.554 34.6386 134.533 35.4642 134.533 36.0076C134.533 36.9684 134.587 37.5119 134.705 38.0209H133.335C133.291 37.8283 133.269 37.5692 133.239 37.2619C132.816 37.8971 132.212 38.1677 131.336 38.1677ZM133.107 35.2372C131.432 35.4183 130.773 35.6224 130.773 36.3011C130.773 36.7414 131.097 37.1037 131.778 37.1037C132.718 37.1037 133.107 36.5832 133.107 35.6889V35.2372Z" fill="#1333BB"/>
  <path d="M135.785 38.0209V31.9351H137.276V34.2878H139.696V31.9351H141.187V38.0209H139.696V35.5214H137.276V38.0209H135.785Z" fill="#1333BB"/>
  <path d="M142.535 38.0209V31.9351H143.993V36.0855L146.553 31.9351H148.044V38.0209H146.586V34.0172L144.026 38.0209H142.535Z" fill="#1333BB"/>
  <path d="M149.393 38.0207V31.9349H150.851V36.0854L153.41 31.9349H154.901V38.0207H153.443V34.017L150.884 38.0207H149.393ZM150.387 29.8184H151.435C151.479 30.1807 151.705 30.4077 152.213 30.4077C152.721 30.4077 152.957 30.1807 153.001 29.8184H154.05C153.964 30.6209 153.445 31.2217 152.202 31.2217C151.002 31.2217 150.441 30.6232 150.387 29.8184Z" fill="#1333BB"/>
</svg>
