<svg width="400" height="81" viewBox="0 0 400 81" fill="none" xmlns="http://www.w3.org/2000/svg">
<path d="M397.181 20.734C397.912 20.734 398.886 20.8153 399.617 20.8964L396.195 31.1764C395.83 31.1788 395.434 31.1897 394.988 31.2095C390.136 31.2095 384.863 35.3393 384.758 40.3866V64.0805H374.605V20.6528L384.758 20.734V26.9024C388.026 22.1567 391.718 21.1021 397.181 20.734Z" fill="#1333BB"/>
<path fill-rule="evenodd" clip-rule="evenodd" d="M399.969 20.6708L396.385 31.4383L396.197 31.4396C395.836 31.4419 395.443 31.4527 395 31.4723L394.988 31.4728C392.633 31.4728 390.161 32.4771 388.264 34.1049C386.368 35.7319 385.073 37.9594 385.021 40.3895V64.3437H374.342V20.3876L385.021 20.4729V26.0865C386.541 24.0673 388.173 22.7732 390.039 21.9364C392.097 21.0142 394.422 20.6561 397.163 20.4715L397.172 20.4708H397.181C397.926 20.4708 398.912 20.5533 399.646 20.6348L399.969 20.6708ZM385.021 26.5297C388.225 22.1008 391.864 21.0922 397.181 20.734C397.825 20.734 398.66 20.7972 399.349 20.8679C399.441 20.8773 399.531 20.8868 399.617 20.8964L396.195 31.1764C395.831 31.1788 395.434 31.1897 394.988 31.2095C390.136 31.2095 384.863 35.3393 384.758 40.3866V64.0805H374.605V20.6528L384.758 20.734V26.9024C384.845 26.7756 384.933 26.6513 385.021 26.5297Z" fill="#1333BB"/>
<path d="M356.342 46.9442C356.342 53.1263 351.653 56.963 344.587 56.963C339.472 56.963 336.15 55.2102 336.15 52.0433C336.15 47.9988 344.587 45.8896 356.342 44.3077V46.9442ZM356.342 60.6541C356.342 62.9311 356.342 64.069 356.342 64.069H366.169V49.0535C366.169 49.0535 366.169 39.5377 366.169 38.2384C366.169 23.5403 358.697 18.9928 348.384 18.9928C337.097 18.9928 330.113 25.3268 329.22 33.9345H339.695C339.842 29.5432 343.447 27.4339 347.752 27.4339C352.299 27.4339 356.342 29.1308 356.342 35.8708V36.6827C339.126 38.6317 327.271 41.7302 327.271 52.0433C327.271 60.0014 334.66 64.8736 343.024 64.8736C349.602 64.8736 353.552 63.818 356.342 60.6541Z" fill="#1333BB"/>
<path fill-rule="evenodd" clip-rule="evenodd" d="M366.169 49.0535V64.069H356.342V60.6541C356.256 60.7523 356.167 60.8484 356.079 60.9426C353.304 63.8824 349.398 64.8736 343.024 64.8736C334.66 64.8736 327.27 60.0014 327.27 52.0433C327.27 41.7302 339.126 38.6317 356.342 36.6827V35.8708C356.342 29.1308 352.299 27.4339 347.752 27.4339C343.447 27.4339 339.842 29.5432 339.695 33.9345H329.22C329.228 33.8466 329.239 33.7588 329.249 33.6714C330.256 25.198 337.212 18.9928 348.384 18.9928C358.697 18.9928 366.169 23.5403 366.169 38.2384V49.0535ZM356.079 36.4478C347.574 37.4186 340.354 38.6815 335.242 40.9865C332.66 42.1512 330.6 43.5889 329.184 45.4046C327.766 47.2249 327.007 49.4101 327.007 52.0433C327.007 56.1128 328.9 59.3946 331.852 61.6517C334.797 63.9052 338.795 65.1367 343.024 65.1367C349.276 65.1367 353.24 64.188 356.079 61.3212V64.3321H366.433V49.0535H366.169C366.433 49.0535 366.433 49.0535 366.433 49.0535V38.2384C366.433 30.8479 364.554 25.9541 361.324 22.9123C358.098 19.8733 353.574 18.7297 348.384 18.7297C342.692 18.7297 338.061 20.3275 334.738 23.0317C331.413 25.7371 329.412 29.5373 328.958 33.9074L328.927 34.1977H339.949L339.958 33.9434C340.028 31.8269 340.928 30.2771 342.32 29.2492C343.721 28.2153 345.639 27.6971 347.752 27.6971C350 27.6971 352.076 28.1181 353.587 29.3302C355.087 30.5329 356.079 32.5554 356.079 35.8708V36.4478ZM352.944 54.0706C354.937 52.3923 356.079 49.9634 356.079 46.9442V44.6088C350.332 45.3905 345.416 46.3001 341.924 47.5008C340.146 48.112 338.758 48.7921 337.818 49.5551C336.882 50.3149 336.414 51.1369 336.414 52.0433C336.414 53.5152 337.177 54.6656 338.58 55.4619C339.996 56.2648 342.054 56.6998 344.587 56.6998C348.075 56.6998 350.947 55.7531 352.944 54.0706ZM356.079 44.3433C344.462 45.9213 336.15 48.0291 336.15 52.0433C336.15 55.2102 339.472 56.9629 344.587 56.9629C351.653 56.9629 356.342 53.1263 356.342 46.9442V44.3077C356.255 44.3195 356.166 44.3314 356.079 44.3433Z" fill="#1333BB"/>
<path d="M319.528 64.3411V1.24911L308.322 5.46759V24.5266C305.652 22.1567 299.852 21.1021 295.633 21.1021C287.196 21.6294 276.733 28.7734 276.733 42.497C276.733 56.4642 288.148 64.3411 295.633 64.3411C300.18 64.3411 304.597 63.8138 308.288 60.65L308.322 64.3411H319.528ZM298.269 53.795C292.422 53.795 287.196 49.0493 287.196 42.497C287.196 33.9704 293.523 30.5936 298.269 30.5936C304.441 30.5936 309.342 35.5867 309.342 42.497C309.342 50.6312 302.487 53.795 298.269 53.795Z" fill="#1333BB"/>
<path d="M250.56 19.3054C243.904 19.3054 238.519 21.4856 234.42 25.854C230.314 30.2225 228.26 35.6651 228.26 42.1976C228.26 48.7865 230.314 54.2532 234.42 58.5813C238.526 62.9175 243.904 65.0815 250.56 65.0815C257.216 65.0815 262.593 62.9175 266.699 58.5813C270.806 54.2451 272.859 48.7865 272.859 42.1976C272.859 35.6651 270.806 30.2144 266.699 25.854C262.593 21.4856 257.216 19.3054 250.56 19.3054ZM258.502 50.3853C256.425 52.614 253.776 53.7202 250.56 53.7202C247.29 53.7202 244.624 52.6221 242.572 50.4257C240.518 48.2294 239.495 45.484 239.495 42.1895C239.495 38.895 240.518 36.1334 242.572 33.9127C244.624 31.6922 247.282 30.5779 250.56 30.5779C253.83 30.5779 256.495 31.6922 258.548 33.9127C260.601 36.1414 261.624 38.895 261.624 42.1895C261.624 45.4275 260.586 48.1647 258.502 50.3853Z" fill="#1333BB"/>
<path d="M195.806 21.7074H184.6V64.3411H195.806V42.6582C195.806 35.7559 197.429 29.7466 204.82 29.7466C211.154 29.7466 212.372 34.7002 212.372 40.3033V64.3411H223.578V37.8672C223.578 27.067 218.949 20.733 208.474 20.733C203.033 20.733 198.323 23.0066 195.806 27.473V21.7074Z" fill="#1333BB"/>
<path fill-rule="evenodd" clip-rule="evenodd" d="M196.069 21.4442V26.5381C198.736 22.5063 203.294 20.4698 208.474 20.4698C213.766 20.4698 217.626 22.0722 220.156 25.0806C222.678 28.0805 223.841 32.4355 223.841 37.8672V64.6042H212.108V40.3033C212.108 37.5096 211.802 34.9294 210.742 33.0534C210.215 32.1211 209.502 31.3644 208.545 30.8388C207.587 30.3125 206.368 30.0098 204.82 30.0098C203.008 30.0098 201.567 30.3779 200.423 31.0227C199.279 31.6672 198.416 32.5964 197.771 33.7431C196.476 36.0466 196.069 39.2173 196.069 42.6582V64.6042H184.337V21.4442H196.069ZM196.069 27.0268C195.979 27.1731 195.892 27.3217 195.806 27.473V21.7074H184.6V64.3411H195.806V42.6582C195.806 35.7559 197.429 29.7466 204.82 29.7466C211.154 29.7466 212.372 34.7002 212.372 40.3033V64.3411H223.578V37.8672C223.578 27.067 218.949 20.733 208.474 20.733C203.217 20.733 198.643 22.8554 196.069 27.0268Z" fill="#1333BB"/>
<path d="M147.593 0.698822L136.386 5.28295V64.1565H147.593V42.4738C147.593 35.5714 149.217 29.5622 156.606 29.5622C162.941 29.5622 164.159 34.5157 164.159 40.1188V64.1565H175.365V37.6827C175.365 26.8824 170.737 20.5484 160.261 20.5484C154.82 20.5484 150.111 22.8222 147.593 27.2884V0.698822Z" fill="#1333BB"/>
<path fill-rule="evenodd" clip-rule="evenodd" d="M147.856 0.306839V26.3537C150.523 22.3218 155.081 20.2853 160.261 20.2853C165.554 20.2853 169.413 21.8877 171.943 24.8961C174.465 27.896 175.628 32.2509 175.628 37.6827V64.4197H163.896V40.1188C163.896 37.3251 163.59 34.7448 162.528 32.8688C162.002 31.9366 161.29 31.1799 160.333 30.6544C159.374 30.1281 158.156 29.8254 156.606 29.8254C154.796 29.8254 153.355 30.1934 152.209 30.8382C151.066 31.4826 150.203 32.412 149.558 33.5585C148.263 35.8621 147.856 39.0327 147.856 42.4738V64.4197H136.123V5.1063L147.856 0.306839ZM147.856 26.8424C147.766 26.9885 147.678 27.1373 147.593 27.2884V0.698818L136.386 5.28294V64.1565H147.593V42.4738C147.593 35.5714 149.217 29.5622 156.606 29.5622C162.941 29.5622 164.159 34.5157 164.159 40.1188V64.1565H175.365V37.6827C175.365 26.8824 170.737 20.5484 160.261 20.5484C155.004 20.5484 150.431 22.6708 147.856 26.8424Z" fill="#1333BB"/>
<path d="M110.938 19.6784C97.8642 19.6784 89.0126 29.2605 89.0126 42.5781C89.0126 55.8145 97.3768 65.3967 110.451 65.3967C119.545 65.3967 129.042 60.4591 131.641 48.5219H120.04C118.985 51.6858 114.348 54.8496 110.451 54.8496C106.76 54.8496 100.002 51.7543 100.002 42.5781C100.002 34.1413 106.331 30.5936 110.938 30.5936C115.242 30.5936 117.931 32.7028 120.04 35.8666L130.752 35.5945C129.209 24.7943 120.114 19.6784 110.938 19.6784Z" fill="#1333BB"/>
<path d="M70.8463 51.9518C70.2421 52.5171 69.5147 53.0096 68.6632 53.4295C66.9747 54.2693 65.1558 54.6327 63.22 54.5116C60.4474 54.3985 58.1632 53.5425 56.36 51.9518C54.5558 50.3611 53.4947 48.4151 53.1621 46.0976H84.42C85.1937 38.4104 83.5916 32.0233 79.5958 26.9361C75.6084 21.849 70.1726 19.3054 63.2969 19.3054C57.0337 19.3054 51.8684 21.5017 47.7884 25.8944C43.7158 30.2872 41.679 35.7215 41.679 42.1975C41.679 48.617 43.5916 54.0352 47.4169 58.4521C51.2411 62.8771 56.5063 65.0815 63.2116 65.0815C68.1979 65.0815 72.5811 63.7653 76.3516 61.141C78.4116 59.7037 80.1074 57.9514 81.439 55.8762C81.4537 55.852 81.4695 55.8197 81.4853 55.7874L70.9011 51.8792C70.8853 51.9115 70.8621 51.9357 70.8463 51.9518ZM56.8547 31.7486C58.6516 30.4486 60.7726 29.7946 63.2116 29.7946C65.6505 29.7946 67.7411 30.4325 69.4916 31.7002C71.2411 32.9761 72.4179 34.7363 73.0221 36.9892H53.2316C53.8432 34.801 55.0505 33.0487 56.8547 31.7486Z" fill="#1333BB"/>
<path d="M0.181061 5.70515V17.6727H18.3463V63.8376H30.2316V17.6727H43.4179L47.4832 5.70515H0.181061Z" fill="#1333BB"/>
</svg>
