<svg width="118" height="24" viewBox="0 0 118 24" fill="none" xmlns="http://www.w3.org/2000/svg">
<path d="M40.1586 4.65015H36.0393L33.4514 8.65003L30.784 4.65015H26.3028L31.1192 11.3535L26.2522 18.1098H30.6537L33.2705 14.1376L35.9621 18.1098H40.4432L35.5738 11.2705L40.1586 4.65015Z" fill="#1333BB"/>
<path d="M50.7431 9.54114H45.2777V4.65015H41.7805V18.1098H45.2777V13.0023H50.7431V18.1098H54.2379V4.65015H50.7431V9.54114Z" fill="#1333BB"/>
<path d="M84.3808 4.65015H73.1414C73.1414 8.59583 73.0979 11.2154 73.0111 12.5138C72.9062 14.0775 72.2494 14.6754 70.7078 14.6754V21.1324H74.0482V18.1052H83.2424V21.1324H86.5829V14.6754H84.3808V4.65015ZM80.886 14.6729H76.0164C76.19 14.0438 76.301 13.2235 76.354 12.2144C76.3878 11.5123 76.424 10.1434 76.4577 8.10768H80.886V14.6729Z" fill="#1333BB"/>
<path d="M97.5516 6.37378H97.4215C97.0071 5.74137 96.4385 5.22735 95.7134 4.83177C94.9882 4.4362 94.1787 4.23716 93.2825 4.23716C91.4708 4.21952 89.9915 4.88723 88.8471 6.24024C87.7003 7.59325 87.127 9.31664 87.127 11.4079C87.127 13.5017 87.71 15.2099 88.8736 16.5352C90.0373 17.8605 91.4997 18.5232 93.2584 18.5232C94.1715 18.5055 94.9906 18.2964 95.7158 17.9008C96.4409 17.5053 97.0095 16.9812 97.4239 16.3311H97.554V18.1175H101.021V4.64533H97.554V6.37378H97.5516ZM96.5951 13.9905C95.9567 14.7035 95.1279 15.0588 94.1113 15.0588C93.0946 15.0588 92.261 14.7111 91.6153 14.0182C90.9696 13.3228 90.6444 12.4434 90.6444 11.3802C90.6444 10.3169 90.9672 9.43756 91.6153 8.74216C92.261 8.04676 93.0946 7.70157 94.1113 7.70157C95.1111 7.70157 95.935 8.05433 96.5807 8.75729C97.2264 9.46025 97.5516 10.337 97.5516 11.3827C97.5516 12.4056 97.2336 13.2774 96.5951 13.9905Z" fill="#1333BB"/>
<path d="M115.818 6.23711C114.671 4.88621 113.192 4.21955 111.382 4.23716C110.503 4.23716 109.696 4.43592 108.963 4.83087C108.231 5.22835 107.658 5.74153 107.243 6.37045H107.113V4.6422H103.646V24L107.113 22.7422V16.3122H107.243C107.658 16.9613 108.226 17.482 108.951 17.8795C109.676 18.2745 110.496 18.4832 111.409 18.5009C113.167 18.5009 114.63 17.8392 115.793 16.516C116.957 15.1928 117.54 13.4872 117.54 11.3967C117.538 9.30871 116.964 7.58801 115.818 6.23711ZM113.049 14.0029C112.404 14.6972 111.57 15.0418 110.553 15.0418C109.537 15.0418 108.708 14.6871 108.07 13.9752C107.431 13.2633 107.113 12.3954 107.113 11.369C107.113 10.325 107.436 9.45209 108.084 8.74771C108.73 8.04585 109.554 7.69367 110.553 7.69367C111.57 7.69367 112.404 8.0408 113.049 8.7326C113.695 9.42692 114.02 10.3049 114.02 11.3665C114.02 12.4331 113.697 13.3111 113.049 14.0029Z" fill="#1333BB"/>
<path d="M22.0139 14.4071C21.8257 14.5832 21.599 14.7366 21.3337 14.8674C20.8078 15.129 20.241 15.2423 19.638 15.2045C18.7744 15.1693 18.0629 14.9026 17.5008 14.4071C16.9388 13.9115 16.6084 13.3053 16.5046 12.5833H26.2423C26.4835 10.1886 25.9842 8.19878 24.7396 6.614C23.4973 5.02922 21.804 4.23682 19.6621 4.23682C17.7107 4.23682 16.1018 4.92105 14.8306 6.28949C13.5619 7.65794 12.9275 9.3509 12.9275 11.3684C12.9275 13.3682 13.5233 15.0561 14.7148 16.4321C15.9064 17.8106 17.5467 18.4973 19.6355 18.4973C21.1889 18.4973 22.5542 18.0873 23.7289 17.2698C24.3705 16.822 24.8988 16.2761 25.3136 15.6296C25.3185 15.6221 25.3233 15.612 25.3281 15.602L22.0308 14.3845C22.0259 14.3945 22.0187 14.4021 22.0139 14.4071ZM17.6552 8.11325C18.2148 7.70825 18.8757 7.50451 19.6355 7.50451C20.3954 7.50451 21.0466 7.70323 21.5918 8.09817C22.1369 8.49562 22.5035 9.04399 22.6917 9.74582H16.5263C16.7169 9.06411 17.0932 8.51825 17.6552 8.11325Z" fill="#1333BB"/>
<path d="M0 0V3.72821H5.65893V18.1098H9.36158V3.72821H13.4695L14.7359 0H0Z" fill="#1333BB"/>
<path d="M63.2157 4.23682C61.1423 4.23682 59.4647 4.916 58.1878 6.2769C56.9084 7.6378 56.2688 9.33329 56.2688 11.3684C56.2688 13.421 56.9084 15.124 58.1878 16.4723C59.4671 17.8232 61.1423 18.4973 63.2157 18.4973C65.2892 18.4973 66.9643 17.8232 68.2436 16.4723C69.523 15.1215 70.1626 13.421 70.1626 11.3684C70.1626 9.33329 69.523 7.63529 68.2436 6.2769C66.9643 4.916 65.2892 4.23682 63.2157 4.23682ZM65.6899 13.9191C65.043 14.6133 64.2174 14.958 63.2157 14.958C62.1971 14.958 61.3667 14.6159 60.7271 13.9317C60.0874 13.2474 59.7688 12.3922 59.7688 11.3658C59.7688 10.3395 60.0874 9.47919 60.7271 8.78742C61.3667 8.09565 62.1947 7.74851 63.2157 7.74851C64.2343 7.74851 65.0647 8.09565 65.7043 8.78742C66.344 9.48171 66.6626 10.3395 66.6626 11.3658C66.6626 12.3746 66.3392 13.2273 65.6899 13.9191Z" fill="#1333BB"/>
</svg>
