<svg width="240" height="129" viewBox="0 0 240 129" fill="none" xmlns="http://www.w3.org/2000/svg">
<path d="M60.957 107.322V97.1763H68.3387V98.7992H63.0337V107.322H60.957Z" fill="#1333BB"/>
<path d="M67.9297 109.771V99.7923H69.9356V100.757C70.3568 100.042 71.1993 99.6221 72.189 99.6221C74.0771 99.6221 75.5882 101.191 75.5882 103.555C75.5882 105.961 74.0329 107.501 72.1743 107.501C71.3613 107.501 70.4452 107.206 69.9356 106.366V109.768H67.9297V109.771ZM73.4792 103.572C73.4792 102.102 72.7369 101.109 71.6912 101.109C70.5866 101.109 69.859 102.048 69.859 103.557C69.859 105.109 70.5866 106.02 71.6912 106.02C72.7369 106.02 73.4792 105.041 73.4792 103.572Z" fill="#1333BB"/>
<path d="M76.5192 109.771V108.287H77.2762C77.9449 108.287 78.2365 108.301 78.584 107.504L78.6724 107.294L75.6797 99.792H77.8741L79.6474 105.223L81.4648 99.792H83.5003L80.6371 107.098C79.7063 109.436 79.3146 109.771 77.3675 109.771H76.5192Z" fill="#1333BB"/>
<path d="M84.3984 107.322V99.792H91.3883V107.322H89.3824V101.318H86.4044V107.322H84.3984Z" fill="#1333BB"/>
<path d="M93.1953 107.322V99.792H100.185V107.322H98.1793V101.318H95.2013V107.322H93.1953Z" fill="#1333BB"/>
<path d="M104.366 107.504C102.869 107.504 101.547 106.664 101.547 105.294C101.547 103.518 103.612 102.984 106.69 102.649V102.525C106.69 101.364 106.036 100.956 105.223 100.956C104.451 100.956 103.812 101.333 103.771 102.173H101.897C102.056 100.689 103.308 99.5964 105.326 99.5964C107.17 99.5964 108.696 100.38 108.696 102.913C108.696 103.137 108.666 104.159 108.666 104.831C108.666 106.02 108.74 106.693 108.899 107.322H107.055C106.996 107.084 106.967 106.763 106.926 106.383C106.357 107.169 105.544 107.504 104.366 107.504ZM106.749 103.878C104.495 104.102 103.609 104.355 103.609 105.194C103.609 105.739 104.045 106.187 104.961 106.187C106.225 106.187 106.749 105.543 106.749 104.437V103.878Z" fill="#1333BB"/>
<path d="M113.754 107.322V99.792H115.775V103.446H115.789L118.535 99.792H120.803L117.854 103.5L120.935 107.322H118.626L115.792 103.628H115.778V107.322H113.754Z" fill="#1333BB"/>
<path d="M120.957 103.571C120.957 100.927 122.904 99.6248 124.881 99.6248C126.857 99.6248 128.804 100.927 128.804 103.571C128.804 106.202 126.857 107.504 124.881 107.504C122.904 107.504 120.957 106.202 120.957 103.571ZM122.989 103.571C122.989 105.152 123.773 105.992 124.878 105.992C125.982 105.992 126.766 105.152 126.766 103.571C126.766 101.991 125.982 101.137 124.878 101.137C123.773 101.137 122.989 101.988 122.989 103.571Z" fill="#1333BB"/>
<path d="M130.078 107.322V99.792H133.027L134.815 105.194L136.588 99.792H139.536V107.322H137.619V101.361L135.513 107.322H134.105L131.999 101.361V107.322H130.078Z" fill="#1333BB"/>
<path d="M141.359 107.322V99.7922H148.349V107.322H146.343V101.319H143.365V107.322H141.359Z" fill="#1333BB"/>
<path d="M152.53 107.504C151.034 107.504 149.711 106.664 149.711 105.294C149.711 103.518 151.776 102.984 154.854 102.649V102.525C154.854 101.364 154.2 100.956 153.387 100.956C152.618 100.956 151.976 101.333 151.935 102.173H150.061C150.221 100.689 151.472 99.5964 153.49 99.5964C155.334 99.5964 156.86 100.38 156.86 102.913C156.86 103.137 156.83 104.159 156.83 104.831C156.83 106.02 156.904 106.693 157.063 107.322H155.219C155.16 107.084 155.131 106.763 155.09 106.383C154.521 107.169 153.708 107.504 152.53 107.504ZM154.913 103.878C152.659 104.102 151.773 104.355 151.773 105.194C151.773 105.739 152.209 106.187 153.125 106.187C154.389 106.187 154.913 105.543 154.913 104.437V103.878Z" fill="#1333BB"/>
<path d="M158.516 107.322V99.792H160.522V102.703H163.776V99.792H165.782V107.322H163.776V104.23H160.522V107.322H158.516Z" fill="#1333BB"/>
<path d="M167.598 107.322V99.792H169.559V104.927L173.003 99.792H175.009V107.322H173.047V102.368L169.604 107.322H167.598Z" fill="#1333BB"/>
<path d="M176.82 107.322V99.7922H178.782V104.928L182.225 99.7922H184.231V107.322H182.27V102.368L178.826 107.322H176.82ZM178.158 97.1733H179.569C179.627 97.6216 179.931 97.9025 180.614 97.9025C181.298 97.9025 181.616 97.6216 181.675 97.1733H183.086C182.971 98.1664 182.273 98.9098 180.6 98.9098C178.985 98.9098 178.231 98.1692 178.158 97.1733Z" fill="#1333BB"/>
<path d="M103.279 68.1282H98.231L95.0599 72.7614L91.7913 68.1282H86.3003L92.2021 75.893L86.2383 83.719H91.6317L94.8383 79.1179L98.1364 83.719H103.627L97.6606 75.7968L103.279 68.1282Z" fill="#1333BB"/>
<path d="M116.248 73.7936H109.551V68.1282H105.266V83.719H109.551V77.8029H116.248V83.719H120.53V68.1282H116.248V73.7936Z" fill="#1333BB"/>
<path d="M157.465 68.1282H143.693C143.693 72.6986 143.64 75.7329 143.533 77.237C143.405 79.0483 142.6 79.7408 140.711 79.7408V87.2202H144.804V83.7137H156.07V87.2202H160.164V79.7408H157.465V68.1282ZM153.183 79.7379H147.216C147.429 79.0092 147.565 78.059 147.63 76.8901C147.671 76.0769 147.715 74.4913 147.757 72.1332H153.183V79.7379Z" fill="#1333BB"/>
<path d="M173.606 70.1247H173.447C172.939 69.3922 172.242 68.7968 171.353 68.3386C170.465 67.8804 169.473 67.6498 168.375 67.6498C166.155 67.6294 164.342 68.4028 162.94 69.9701C161.535 71.5373 160.832 73.5336 160.832 75.956C160.832 78.3813 161.546 80.36 162.972 81.8952C164.398 83.4303 166.19 84.1979 168.345 84.1979C169.464 84.1774 170.468 83.9352 171.356 83.477C172.245 83.0188 172.942 82.4117 173.449 81.6587H173.609V83.728H177.857V68.1226H173.609V70.1247H173.606ZM172.434 78.9474C171.652 79.7734 170.636 80.1849 169.39 80.1849C168.145 80.1849 167.123 79.7821 166.332 78.9795C165.541 78.174 165.142 77.1555 165.142 75.9239C165.142 74.6922 165.538 73.6736 166.332 72.8681C167.123 72.0626 168.145 71.6628 169.39 71.6628C170.615 71.6628 171.625 72.0714 172.416 72.8857C173.207 73.6999 173.606 74.7156 173.606 75.9267C173.606 77.1117 173.216 78.1215 172.434 78.9474Z" fill="#1333BB"/>
<path d="M195.988 69.9664C194.583 68.4016 192.771 67.6294 190.554 67.6498C189.476 67.6498 188.487 67.88 187.59 68.3375C186.692 68.7979 185.99 69.3924 185.482 70.1209H185.322V68.119H181.074V90.5419L185.322 89.085V81.6368H185.482C185.99 82.3887 186.686 82.9919 187.575 83.4523C188.463 83.9098 189.467 84.1516 190.586 84.172C192.741 84.172 194.533 83.4056 195.959 81.8729C197.385 80.3401 198.099 78.3645 198.099 75.943C198.096 73.5244 197.394 71.5312 195.988 69.9664ZM192.596 78.9618C191.805 79.7661 190.784 80.1653 189.538 80.1653C188.292 80.1653 187.277 79.7544 186.494 78.9298C185.712 78.1051 185.322 77.0998 185.322 75.9109C185.322 74.7016 185.718 73.6905 186.512 72.8746C187.303 72.0616 188.313 71.6536 189.538 71.6536C190.784 71.6536 191.805 72.0557 192.596 72.8571C193.388 73.6613 193.786 74.6783 193.786 75.908C193.786 77.1435 193.391 78.1605 192.596 78.9618Z" fill="#1333BB"/>
<path d="M81.0482 79.43C80.8176 79.634 80.5398 79.8117 80.2147 79.9633C79.5703 80.2663 78.8757 80.3975 78.1368 80.3537C77.0787 80.313 76.2067 80.0041 75.5181 79.43C74.8294 78.856 74.4244 78.1538 74.2974 77.3175H86.2295C86.5251 74.5436 85.9133 72.2387 84.3881 70.403C82.8659 68.5673 80.791 67.6494 78.1664 67.6494C75.7752 67.6494 73.8038 68.442 72.2461 70.0271C70.6914 71.6122 69.9141 73.5733 69.9141 75.9102C69.9141 78.2266 70.6441 80.1818 72.1042 81.7757C73.5643 83.3725 75.5742 84.1679 78.1338 84.1679C80.0373 84.1679 81.7102 83.693 83.1497 82.746C83.9359 82.2273 84.5832 81.595 85.0916 80.8462C85.0975 80.8374 85.1034 80.8258 85.1093 80.8141L81.0689 79.4038C81.063 79.4155 81.0541 79.4242 81.0482 79.43ZM75.7072 72.1396C76.3929 71.6705 77.2028 71.4345 78.1338 71.4345C79.0649 71.4345 79.8629 71.6647 80.5309 72.1222C81.1989 72.5826 81.6482 73.2178 81.8787 74.0307H74.3239C74.5574 73.2411 75.0185 72.6088 75.7072 72.1396Z" fill="#1333BB"/>
<path d="M54.0703 62.7417V67.0602H61.0045V83.719H65.5416V67.0602H70.5753L72.1271 62.7417H54.0703Z" fill="#1333BB"/>
<path d="M131.532 67.6494C128.991 67.6494 126.936 68.4361 125.371 70.0125C123.803 71.5889 123.02 73.5529 123.02 75.9102C123.02 78.2878 123.803 80.2605 125.371 81.8223C126.939 83.387 128.991 84.1679 131.532 84.1679C134.073 84.1679 136.125 83.387 137.693 81.8223C139.261 80.2576 140.044 78.2878 140.044 75.9102C140.044 73.5529 139.261 71.586 137.693 70.0125C136.125 68.4361 134.073 67.6494 131.532 67.6494ZM134.564 78.8648C133.771 79.669 132.759 80.0682 131.532 80.0682C130.284 80.0682 129.266 79.6719 128.483 78.8793C127.699 78.0868 127.308 77.0961 127.308 75.9072C127.308 74.7184 127.699 73.7219 128.483 72.9206C129.266 72.1193 130.281 71.7171 131.532 71.7171C132.78 71.7171 133.798 72.1193 134.581 72.9206C135.365 73.7248 135.756 74.7184 135.756 75.9072C135.756 77.0757 135.359 78.0634 134.564 78.8648Z" fill="#1333BB"/>
<path fill-rule="evenodd" clip-rule="evenodd" d="M9.3356 37.4323C7.65358 37.4323 7.44223 36.5795 7.80035 35.2729C9.84637 29.2802 17.0001 20.9141 25.6245 20.9141H56.077C58.5486 20.9141 59.6318 21.1656 59.1827 24.0506L55.578 46.761C52.9801 57.8561 38.8429 63.6609 35.3937 63.6146C34.4221 63.6002 33.7323 62.8283 33.8937 61.8657L37.6804 37.4323H9.33266H9.3356Z" fill="#1333BB"/>
<path fill-rule="evenodd" clip-rule="evenodd" d="M65.0379 20.9141H90.3209C92.28 20.9141 92.3856 21.6821 91.9603 23.0854C89.9573 29.4897 82.7516 37.4128 74.1323 37.4128H62.2547C61.0347 37.4128 60.2898 37.0172 60.4892 35.7496L62.4482 23.1143C62.7562 21.1595 63.6536 20.9141 65.0379 20.9141Z" fill="#A61A1A"/>
</svg>
