<svg width="269" height="80" viewBox="0 0 269 80" fill="none" xmlns="http://www.w3.org/2000/svg">
<path fill-rule="evenodd" clip-rule="evenodd" d="M22.4198 33.0873C21.1962 33.0873 21.0425 32.4734 21.303 31.5328C22.7913 27.2189 27.9952 21.1965 34.2688 21.1965H56.421C58.2189 21.1965 59.0069 21.3776 58.6802 23.4544L56.058 39.8026C54.1682 47.7894 43.8843 51.9681 41.3753 51.9348C40.6685 51.9244 40.1667 51.3687 40.2841 50.6758L43.0387 33.0873H22.4176H22.4198Z" fill="#333333"/>
<path fill-rule="evenodd" clip-rule="evenodd" d="M62.9397 21.1965H81.3314C82.7565 21.1965 82.8333 21.7494 82.5239 22.7596C81.0669 27.3698 75.8252 33.0732 69.5552 33.0732H60.9151C60.0276 33.0732 59.4857 32.7885 59.6308 31.876L61.0559 22.7804C61.2799 21.3732 61.9327 21.1965 62.9397 21.1965Z" fill="#333333"/>
<path d="M136.873 32.2085H132.098L129.099 36.8445L126.007 32.2085H120.814L126.396 39.9779L120.755 47.8086H125.856L128.889 43.2047L132.009 47.8086H137.203L131.559 39.8816L136.873 32.2085Z" fill="#333333"/>
<path d="M149.14 37.8773H142.806V32.2085H138.752V47.8086H142.806V41.8889H149.14V47.8086H153.191V32.2085H149.14V37.8773Z" fill="#333333"/>
<path d="M188.127 32.2085H175.1C175.1 36.7816 175.05 39.8177 174.949 41.3227C174.828 43.1351 174.067 43.828 172.28 43.828V51.3118H176.151V47.8033H186.808V51.3118H190.679V43.828H188.127V32.2085ZM184.077 43.8251H178.433C178.634 43.096 178.762 42.1452 178.824 40.9756C178.863 40.1619 178.905 38.5753 178.944 36.2159H184.077V43.8251Z" fill="#333333"/>
<path d="M203.393 34.2063H203.242C202.762 33.4733 202.103 32.8775 201.262 32.4191C200.422 31.9606 199.484 31.7299 198.445 31.7299C196.345 31.7094 194.631 32.4833 193.304 34.0515C191.975 35.6197 191.311 37.6171 191.311 40.0409C191.311 42.4677 191.986 44.4476 193.335 45.9836C194.684 47.5197 196.379 48.2877 198.417 48.2877C199.475 48.2673 200.425 48.0249 201.265 47.5664C202.106 47.1079 202.765 46.5005 203.245 45.7471H203.396V47.8176H207.414V32.203H203.396V34.2063H203.393ZM202.284 43.0342C201.544 43.8606 200.584 44.2724 199.405 44.2724C198.227 44.2724 197.261 43.8694 196.513 43.0663C195.764 42.2603 195.387 41.2412 195.387 40.0088C195.387 38.7765 195.761 37.7573 196.513 36.9513C197.261 36.1453 198.227 35.7452 199.405 35.7452C200.564 35.7452 201.519 36.1541 202.268 36.9688C203.016 37.7836 203.393 38.7998 203.393 40.0117C203.393 41.1973 203.024 42.2078 202.284 43.0342Z" fill="#333333"/>
<path d="M224.563 34.0479C223.234 32.4822 221.52 31.7095 219.423 31.7299C218.403 31.7299 217.468 31.9603 216.619 32.418C215.77 32.8787 215.106 33.4735 214.625 34.2024H214.475V32.1993H210.457V54.6355L214.475 53.1777V45.7252H214.625C215.106 46.4774 215.765 47.081 216.605 47.5417C217.446 47.9994 218.395 48.2414 219.453 48.2618C221.492 48.2618 223.187 47.495 224.535 45.9614C225.884 44.4277 226.56 42.4509 226.56 40.0279C226.557 37.6079 225.892 35.6136 224.563 34.0479ZM221.355 43.0486C220.607 43.8533 219.64 44.2528 218.462 44.2528C217.284 44.2528 216.323 43.8417 215.583 43.0165C214.843 42.1914 214.475 41.1855 214.475 39.9959C214.475 38.7859 214.849 37.7741 215.6 36.9577C216.348 36.1442 217.303 35.7361 218.462 35.7361C219.64 35.7361 220.607 36.1384 221.355 36.9402C222.103 37.7449 222.48 38.7625 222.48 39.993C222.48 41.2292 222.106 42.2468 221.355 43.0486Z" fill="#333333"/>
<path d="M115.843 43.5171C115.625 43.7212 115.362 43.899 115.055 44.0506C114.446 44.3538 113.789 44.4851 113.09 44.4413C112.089 44.4005 111.264 44.0914 110.613 43.5171C109.961 42.9427 109.578 42.2401 109.458 41.4033H120.744C121.024 38.6277 120.445 36.3215 119.002 34.4847C117.563 32.6479 115.6 31.7295 113.118 31.7295C110.856 31.7295 108.991 32.5225 107.518 34.1086C106.047 35.6947 105.312 37.6568 105.312 39.9951C105.312 42.313 106.003 44.2693 107.384 45.8641C108.765 47.4618 110.666 48.2578 113.087 48.2578C114.887 48.2578 116.47 47.7825 117.831 46.835C118.575 46.316 119.187 45.6833 119.668 44.934C119.673 44.9253 119.679 44.9136 119.685 44.902L115.863 43.4908C115.857 43.5025 115.849 43.5112 115.843 43.5171ZM110.792 36.2224C111.44 35.753 112.206 35.5168 113.087 35.5168C113.967 35.5168 114.722 35.7471 115.354 36.2049C115.986 36.6655 116.411 37.3011 116.629 38.1146H109.483C109.704 37.3244 110.14 36.6918 110.792 36.2224Z" fill="#333333"/>
<path d="M90.3281 26.8188V31.1399H96.887V47.8086H101.178V31.1399H105.94L107.407 26.8188H90.3281Z" fill="#333333"/>
<path d="M163.597 31.7295C161.193 31.7295 159.249 32.5167 157.769 34.094C156.286 35.6713 155.545 37.6364 155.545 39.9951C155.545 42.3742 156.286 44.348 157.769 45.9107C159.252 47.4764 161.193 48.2578 163.597 48.2578C166 48.2578 167.941 47.4764 169.424 45.9107C170.907 44.3451 171.648 42.3742 171.648 39.9951C171.648 37.6364 170.907 35.6684 169.424 34.094C167.941 32.5167 166 31.7295 163.597 31.7295ZM166.464 42.9514C165.714 43.7561 164.758 44.1556 163.597 44.1556C162.416 44.1556 161.454 43.7591 160.712 42.966C159.971 42.173 159.602 41.1817 159.602 39.9922C159.602 38.8026 159.971 37.8055 160.712 37.0037C161.454 36.202 162.413 35.7996 163.597 35.7996C164.777 35.7996 165.74 36.202 166.481 37.0037C167.222 37.8084 167.592 38.8026 167.592 39.9922C167.592 41.1613 167.217 42.1497 166.464 42.9514Z" fill="#333333"/>
</svg>
